<?xml version="1.0" encoding="UTF-8" standalone="no"?>
<!DOCTYPE svg PUBLIC "-//W3C//DTD SVG 1.1//EN" "http://www.w3.org/Graphics/SVG/1.1/DTD/svg11.dtd">
<svg width="100%" height="100%" viewBox="0 0 1080 1080" version="1.1" xmlns="http://www.w3.org/2000/svg" xmlns:xlink="http://www.w3.org/1999/xlink" xml:space="preserve" xmlns:serif="http://www.serif.com/" style="fill-rule:evenodd;clip-rule:evenodd;stroke-linejoin:round;stroke-miterlimit:2;">
    <g id="hair-back">
        <g>
            <path d="M540,112.542C718.038,111.154 842.212,201.262 866.124,488.075C866.124,488.075 933.007,1104.38 822.954,1089.5C822.954,1089.5 782.531,1088.51 778.447,1053.76C778.447,1053.76 758.252,1101.01 702.248,1094.09C702.248,1094.09 670.073,1095.43 662.918,1064.41C662.918,1064.41 648.981,1102.32 608.577,1101.51C579.26,1100.92 556.6,1093.55 540,1080C519.827,1108.31 473.457,1102.07 473.457,1102.07C434.048,1102.15 423.747,1064.41 423.747,1064.41C416.592,1095.43 384.416,1094.09 384.416,1094.09C328.413,1101.01 308.218,1053.76 308.218,1053.76C304.133,1088.51 263.711,1089.5 263.711,1089.5C153.658,1104.38 213.876,488.075 213.876,488.075C238.238,208.744 368.25,113.88 540,112.542Z" style="fill:rgb(50,50,50);"/>
        </g>
    </g>
</svg>
