<?xml version="1.0" encoding="UTF-8" standalone="no"?>
<!DOCTYPE svg PUBLIC "-//W3C//DTD SVG 1.1//EN" "http://www.w3.org/Graphics/SVG/1.1/DTD/svg11.dtd">
<svg width="100%" height="100%" viewBox="0 0 1080 1080" version="1.1" xmlns="http://www.w3.org/2000/svg" xmlns:xlink="http://www.w3.org/1999/xlink" xml:space="preserve" xmlns:serif="http://www.serif.com/" style="fill-rule:evenodd;clip-rule:evenodd;stroke-linejoin:round;stroke-miterlimit:2;">
    <g id="hair-back">
        <g>
            <path d="M363.498,1057.69C347.891,1071.51 326.806,1080 303.614,1080C255.576,1080 216.576,1043.59 216.576,998.735C216.576,993.299 217.148,987.988 218.241,982.849C209.517,985.594 200.176,987.081 190.467,987.081C142.429,987.081 120.047,946.872 122.42,902.084C124.255,867.439 139.716,831.619 173.108,826.171C166.268,814.568 162.376,801.241 162.376,787.072C162.376,767.758 169.608,750.008 181.68,736.058C150.994,723.491 129.537,694.865 129.537,661.598C129.537,629.598 149.389,601.894 178.211,588.644C157.833,573.765 144.725,550.599 144.725,524.596C144.725,495.647 160.973,470.213 185.412,455.817C178.118,443.633 173.924,429.383 173.924,414.162C173.924,379.022 196.276,349.062 227.526,337.735C286.929,142.991 466.147,113.863 540,118.851C614.941,113.789 798.371,143.856 855.02,346.445C876.922,361.009 891.368,385.912 891.368,414.162C891.368,429.383 887.174,443.633 879.88,455.817C904.319,470.213 920.566,495.647 920.566,524.596C920.566,550.599 907.458,573.765 887.08,588.644C915.903,601.894 935.755,629.598 935.755,661.598C935.755,694.865 914.298,723.491 883.612,736.058C895.684,750.008 902.916,767.758 902.916,787.072C902.916,801.241 899.024,814.568 892.184,826.171C931.917,833.692 937.472,873.459 935.853,908.412C933.987,948.706 916.447,981.062 875.719,986.245C866.087,987.471 855.775,985.594 847.051,982.849C848.143,987.988 848.716,993.299 848.716,998.735C848.716,1043.59 809.715,1080 761.677,1080C744.256,1080 728.023,1075.21 714.407,1066.97C700.46,1073.95 684.86,1078.4 668.307,1079.64C654.998,1127.63 608.572,1163.09 553.41,1163.09C498.362,1163.09 452.014,1127.78 438.596,1079.94C437.295,1079.98 435.99,1080 434.679,1080C407.986,1080 383.338,1071.7 363.498,1057.69Z" style="fill:rgb(50,50,50);"/>
        </g>
    </g>
</svg>
