<?xml version="1.0" encoding="UTF-8" standalone="no"?>
<!DOCTYPE svg PUBLIC "-//W3C//DTD SVG 1.1//EN" "http://www.w3.org/Graphics/SVG/1.1/DTD/svg11.dtd">
<svg width="100%" height="100%" viewBox="0 0 1080 1080" version="1.1" xmlns="http://www.w3.org/2000/svg" xmlns:xlink="http://www.w3.org/1999/xlink" xml:space="preserve" xmlns:serif="http://www.serif.com/" style="fill-rule:evenodd;clip-rule:evenodd;stroke-linejoin:round;stroke-miterlimit:2;">
    <g id="hair-back">
        <g>
            <path d="M540,119.02C718.038,117.633 842.212,201.262 866.124,488.075C866.124,488.075 939.657,951.34 814.804,943.185C814.804,943.185 779.199,943.377 775.114,908.634C775.114,908.634 754.919,955.88 698.916,948.957C698.916,948.957 666.74,950.305 659.586,919.281C659.586,919.281 645.648,957.188 605.244,956.382C575.928,955.798 553.268,948.425 536.668,934.872C516.495,963.184 470.124,956.947 470.124,956.947C430.715,957.022 420.414,919.281 420.414,919.281C413.26,950.305 381.084,948.957 381.084,948.957C325.081,955.88 304.886,908.634 304.886,908.634C300.801,943.377 260.378,944.369 260.378,944.369C150.325,959.25 213.876,488.075 213.876,488.075C238.238,208.744 368.25,120.359 540,119.02Z" style="fill:rgb(50,50,50);"/>
        </g>
    </g>
</svg>
