<?xml version="1.0" encoding="UTF-8" standalone="no"?>
<!DOCTYPE svg PUBLIC "-//W3C//DTD SVG 1.1//EN" "http://www.w3.org/Graphics/SVG/1.1/DTD/svg11.dtd">
<svg width="100%" height="100%" viewBox="0 0 1080 1080" version="1.1" xmlns="http://www.w3.org/2000/svg" xmlns:xlink="http://www.w3.org/1999/xlink" xml:space="preserve" xmlns:serif="http://www.serif.com/" style="fill-rule:evenodd;clip-rule:evenodd;stroke-linejoin:round;stroke-miterlimit:2;">
    <g id="hair-back">
        <g>
            <path d="M540,118.851C620.982,113.381 828.65,148.932 866.124,398.873C866.124,398.873 941.331,850.621 819.622,855.167C819.622,855.167 779.199,854.176 775.114,819.432C775.114,819.432 754.919,866.678 698.916,859.755C698.916,859.755 666.74,861.103 659.586,830.079C659.586,830.079 645.648,867.986 605.244,867.18C575.928,866.596 553.268,859.223 536.668,845.671C516.495,873.983 470.124,867.745 470.124,867.745C430.715,867.82 420.414,830.079 420.414,830.079C413.26,861.103 381.084,859.755 381.084,859.755C325.081,866.678 304.886,819.432 304.886,819.432C300.801,854.176 260.378,855.167 260.378,855.167C150.325,870.048 213.876,398.873 213.876,398.873C251.35,148.932 459.018,113.381 540,118.851Z" style="fill:rgb(50,50,50);"/>
        </g>
    </g>
</svg>
