<?xml version="1.0" encoding="UTF-8" standalone="no"?>
<!DOCTYPE svg PUBLIC "-//W3C//DTD SVG 1.1//EN" "http://www.w3.org/Graphics/SVG/1.1/DTD/svg11.dtd">
<svg width="100%" height="100%" viewBox="0 0 1080 1080" version="1.1" xmlns="http://www.w3.org/2000/svg" xmlns:xlink="http://www.w3.org/1999/xlink" xml:space="preserve" xmlns:serif="http://www.serif.com/" style="fill-rule:evenodd;clip-rule:evenodd;stroke-linejoin:round;stroke-miterlimit:2;">
    <g id="hair-back">
        <g>
            <path d="M366.967,910.273C351.359,924.099 330.274,932.586 307.083,932.586C259.045,932.586 220.044,896.173 220.044,851.322C220.044,845.886 220.617,840.574 221.709,835.436C212.985,838.18 203.645,839.668 193.935,839.668C145.897,839.668 123.516,799.459 125.888,754.67C127.724,720.026 143.184,684.206 176.576,678.758C169.736,667.155 165.844,653.828 165.844,639.659C165.844,620.344 173.076,602.595 185.148,588.644C154.462,576.077 144.725,550.599 144.725,524.596C144.725,495.647 160.973,470.213 185.412,455.817C178.118,443.633 173.924,429.383 173.924,414.162C173.924,379.022 196.276,349.062 227.526,337.735C286.929,142.991 466.147,113.863 540,118.851C614.941,113.789 798.371,143.856 855.02,346.445C876.922,361.009 891.368,385.912 891.368,414.162C891.368,429.383 887.174,443.633 879.88,455.817C904.319,470.213 920.566,495.647 920.566,524.596C920.566,550.599 907.458,573.765 887.08,588.644C915.903,601.894 920.453,618.661 920.763,637.973C921.106,659.293 909.069,671.876 895.652,678.758C935.385,686.278 940.94,726.046 939.321,760.998C937.455,801.293 919.916,833.648 879.187,838.832C869.555,840.057 859.243,838.18 850.519,835.436C851.612,840.574 852.185,845.886 852.185,851.322C852.185,896.173 813.184,932.586 765.146,932.586C747.724,932.586 731.491,927.797 717.876,919.553C703.928,926.538 688.328,930.983 671.776,932.228C658.466,980.216 612.04,1015.68 556.878,1015.68C501.831,1015.68 455.483,980.363 442.064,932.527C440.764,932.566 439.458,932.586 438.148,932.586C411.454,932.586 386.806,924.283 366.967,910.273Z" style="fill:rgb(50,50,50);"/>
        </g>
    </g>
</svg>
