<?xml version="1.0" encoding="UTF-8" standalone="no"?>
<!DOCTYPE svg PUBLIC "-//W3C//DTD SVG 1.1//EN" "http://www.w3.org/Graphics/SVG/1.1/DTD/svg11.dtd">
<svg width="100%" height="100%" viewBox="0 0 1080 1080" version="1.1" xmlns="http://www.w3.org/2000/svg" xmlns:xlink="http://www.w3.org/1999/xlink" xml:space="preserve" xmlns:serif="http://www.serif.com/" style="fill-rule:evenodd;clip-rule:evenodd;stroke-linejoin:round;stroke-miterlimit:2;">
    <g transform="matrix(1,0,0,1,-9.64631,0)">
        <g id="Hair-front">
            <g>
                <path d="M549.646,254.757C477.441,255.251 419.337,287.421 419.337,287.421C318.654,348.077 331.502,469.651 274.797,468.274C246.668,467.591 255.047,422.235 255.047,422.235C277.485,343.863 303.013,291.251 329.942,259.755C346.427,240.474 368.46,230.92 375.015,223.046C395.541,198.387 397.41,193.672 425.21,173.169C462.768,145.47 546.602,148.059 549.646,148.067C552.69,148.059 636.524,145.47 674.082,173.169C701.882,193.672 703.751,198.387 724.278,223.046C730.833,230.92 752.866,240.474 769.351,259.755C796.28,291.251 821.808,343.863 844.246,422.235C844.246,422.235 852.624,467.591 824.496,468.274C767.791,469.651 780.638,348.077 679.956,287.421C679.956,287.421 621.851,255.251 549.646,254.757Z" style="fill:rgb(50,50,50);"/>
            </g>
        </g>
    </g>
</svg>
