<?xml version="1.0" encoding="UTF-8" standalone="no"?>
<!DOCTYPE svg PUBLIC "-//W3C//DTD SVG 1.1//EN" "http://www.w3.org/Graphics/SVG/1.1/DTD/svg11.dtd">
<svg width="100%" height="100%" viewBox="0 0 1080 1080" version="1.1" xmlns="http://www.w3.org/2000/svg" xmlns:xlink="http://www.w3.org/1999/xlink" xml:space="preserve" xmlns:serif="http://www.serif.com/" style="fill-rule:evenodd;clip-rule:evenodd;stroke-linejoin:round;stroke-miterlimit:2;">
    <path d="M540.691,245.176L540.257,244.2L529.128,269.233C470.118,273.303 420.059,294.012 420.059,294.012C277.708,331.092 330.689,431.787 274.215,431.787C250.056,431.787 252.231,394.281 252.231,394.281C254.195,342.43 288.543,292.78 310.149,261.519C372.934,170.674 502.725,151.269 540.111,153.893L540.257,153.903L540.403,153.893C540.498,153.886 540.594,153.88 540.691,153.873C540.788,153.88 540.884,153.886 540.979,153.893L541.125,153.903L541.271,153.893C578.657,151.269 708.448,170.674 771.233,261.519C792.839,292.78 827.187,342.43 829.151,394.281C829.151,394.281 831.326,431.787 807.167,431.787C750.693,431.787 803.674,331.092 661.323,294.012C661.323,294.012 611.264,273.303 552.254,269.233L541.125,244.2L540.691,245.176Z" style="fill:rgb(50,50,50);"/>
</svg>
