<?xml version="1.0" encoding="UTF-8" standalone="no"?>
<!DOCTYPE svg PUBLIC "-//W3C//DTD SVG 1.1//EN" "http://www.w3.org/Graphics/SVG/1.1/DTD/svg11.dtd">
<svg width="100%" height="100%" viewBox="0 0 1080 1080" version="1.1" xmlns="http://www.w3.org/2000/svg" xmlns:xlink="http://www.w3.org/1999/xlink" xml:space="preserve" xmlns:serif="http://www.serif.com/" style="fill-rule:evenodd;clip-rule:evenodd;stroke-linejoin:round;stroke-miterlimit:2;">
    <g id="Hair-front">
        <g>
            <g>
                <g>
                    <path d="M359.925,231.722C359.925,230.618 360.821,229.722 361.925,229.722C363.029,229.722 363.925,230.618 363.925,231.722L363.925,473.501C363.925,474.605 363.029,475.501 361.925,475.501C360.821,475.501 359.925,474.605 359.925,473.501L359.925,231.722Z" style="fill:rgb(50,50,50);"/>
                    <path d="M441.988,149.616C441.988,148.513 442.884,147.616 443.988,147.616C445.092,147.616 445.988,148.513 445.988,149.616L445.988,473.501C445.988,474.605 445.092,475.501 443.988,475.501C442.884,475.501 441.988,474.605 441.988,473.501L441.988,149.616Z" style="fill:rgb(50,50,50);"/>
                    <path d="M532.744,139.616C532.744,138.513 533.641,137.616 534.744,137.616C535.848,137.616 536.744,138.513 536.744,139.616L536.744,473.501C536.744,474.605 535.848,475.501 534.744,475.501C533.641,475.501 532.744,474.605 532.744,473.501L532.744,139.616Z" style="fill:rgb(50,50,50);"/>
                    <path d="M633.115,149.616C633.115,148.513 634.011,147.616 635.115,147.616C636.219,147.616 637.115,148.513 637.115,149.616L637.115,473.501C637.115,474.605 636.219,475.501 635.115,475.501C634.011,475.501 633.115,474.605 633.115,473.501L633.115,149.616Z" style="fill:rgb(50,50,50);"/>
                    <path d="M692.257,204.723C692.257,203.62 693.153,202.723 694.257,202.723C695.361,202.723 696.257,203.62 696.257,204.723L696.257,473.501C696.257,474.605 695.361,475.501 694.257,475.501C693.153,475.501 692.257,474.605 692.257,473.501L692.257,204.723Z" style="fill:rgb(50,50,50);"/>
                    <path d="M578.876,139.616C578.876,138.513 579.773,137.616 580.876,137.616C581.98,137.616 582.876,138.513 582.876,139.616L582.876,473.501C582.876,474.605 581.98,475.501 580.876,475.501C579.773,475.501 578.876,474.605 578.876,473.501L578.876,139.616Z" style="fill:rgb(50,50,50);"/>
                    <path d="M483.953,139.616C483.953,138.513 484.85,137.616 485.953,137.616C487.057,137.616 487.953,138.513 487.953,139.616L487.953,473.501C487.953,474.605 487.057,475.501 485.953,475.501C484.85,475.501 483.953,474.605 483.953,473.501L483.953,139.616Z" style="fill:rgb(50,50,50);"/>
                    <path d="M400.773,194.04C400.773,192.936 401.67,192.04 402.773,192.04C403.877,192.04 404.773,192.936 404.773,194.04L404.773,473.501C404.773,474.605 403.877,475.501 402.773,475.501C401.67,475.501 400.773,474.605 400.773,473.501L400.773,194.04Z" style="fill:rgb(50,50,50);"/>
                    <path d="M320.527,282.126C320.527,281.022 321.424,280.126 322.527,280.126C323.631,280.126 324.527,281.022 324.527,282.126L324.527,473.501C324.527,474.605 323.631,475.501 322.527,475.501C321.424,475.501 320.527,474.605 320.527,473.501L320.527,282.126Z" style="fill:rgb(50,50,50);"/>
                    <path d="M744.119,256.573C744.119,255.469 745.015,254.573 746.119,254.573C747.223,254.573 748.119,255.469 748.119,256.573L748.119,473.501C748.119,474.605 747.223,475.501 746.119,475.501C745.015,475.501 744.119,474.605 744.119,473.501L744.119,256.573Z" style="fill:rgb(50,50,50);"/>
                </g>
            </g>
        </g>
    </g>
</svg>
