<?xml version="1.0" encoding="UTF-8" standalone="no"?>
<!DOCTYPE svg PUBLIC "-//W3C//DTD SVG 1.1//EN" "http://www.w3.org/Graphics/SVG/1.1/DTD/svg11.dtd">
<svg width="100%" height="100%" viewBox="0 0 1080 1080" version="1.1" xmlns="http://www.w3.org/2000/svg" xmlns:xlink="http://www.w3.org/1999/xlink" xml:space="preserve" xmlns:serif="http://www.serif.com/" style="fill-rule:evenodd;clip-rule:evenodd;stroke-linejoin:round;stroke-miterlimit:2;">
    <g id="Hair-front">
        <g>
            <path d="M266.9,426.866C247.164,410.407 185.844,312.227 225.959,161.038C225.959,161.038 269.089,229.446 324.928,195.86C324.928,195.86 295.027,153.853 360.493,57.31C360.493,57.31 375.901,123.453 454.837,151.859C454.837,151.859 436.869,81.803 509.441,12.175C509.441,12.175 490.601,101.117 609.114,141.295C609.114,141.295 570.763,53.098 695.983,14.737C695.983,14.737 643.034,64.532 769.024,176.144C769.024,176.144 863.166,226.218 847.176,338.978C842.196,374.096 839.911,383.175 829.6,426.536L786.977,427.606C747.517,359.903 723.014,314.301 675.014,294.644C630.369,276.361 571.126,270.812 540,270.661C513.207,270.531 460.108,256.809 394.292,297.646C313.773,347.606 302.61,427.398 302.61,427.398L266.9,426.866Z" style="fill:rgb(50,50,50);"/>
        </g>
    </g>
</svg>
