<?xml version="1.0" encoding="UTF-8" standalone="no"?>
<!DOCTYPE svg PUBLIC "-//W3C//DTD SVG 1.1//EN" "http://www.w3.org/Graphics/SVG/1.1/DTD/svg11.dtd">
<svg width="100%" height="100%" viewBox="0 0 1080 1080" version="1.1" xmlns="http://www.w3.org/2000/svg" xmlns:xlink="http://www.w3.org/1999/xlink" xml:space="preserve" xmlns:serif="http://www.serif.com/" style="fill-rule:evenodd;clip-rule:evenodd;stroke-linejoin:round;stroke-miterlimit:2;">
    <g id="Hair-front">
        <g>
            <path d="M230.52,493.689C236.984,508.064 258.499,554.286 275.383,530.386C291.228,507.956 294.355,414.226 319.304,358.021C319.304,358.021 371.97,480.874 460.114,491.287C460.114,491.287 443.672,457.18 454.835,434.438C454.835,434.438 480.475,504.597 538.403,503.677C538.403,503.677 507.362,472.752 515.409,435.802C515.409,435.802 535.245,487.57 630.764,491.2C630.764,491.2 595.973,450.202 603.116,422.704C603.116,422.704 639.31,510.446 735.559,495.789C735.559,495.789 672.653,450.552 671.014,413.979C671.014,413.979 690.802,445.788 759.243,506.441C759.243,506.441 774.784,530.695 800.654,543.332C814.195,549.947 838.473,495.432 849.583,451.519C849.583,451.519 873.675,358.418 814.83,270.239C754.613,180.004 643.429,84.374 478.853,126.886C478.853,126.886 351.249,141.34 291.865,236.176C291.865,236.176 218.17,296.169 213.48,422.913C212.825,440.614 219.076,468.238 230.52,493.689Z" style="fill:rgb(50,50,50);"/>
        </g>
    </g>
</svg>
