<?xml version="1.0" encoding="UTF-8" standalone="no"?>
<!DOCTYPE svg PUBLIC "-//W3C//DTD SVG 1.1//EN" "http://www.w3.org/Graphics/SVG/1.1/DTD/svg11.dtd">
<svg width="100%" height="100%" viewBox="0 0 1080 1080" version="1.1" xmlns="http://www.w3.org/2000/svg" xmlns:xlink="http://www.w3.org/1999/xlink" xml:space="preserve" xmlns:serif="http://www.serif.com/" style="fill-rule:evenodd;clip-rule:evenodd;stroke-linejoin:round;stroke-miterlimit:2;">
    <g transform="matrix(1,0,0,1,0.301839,0)">
        <g transform="matrix(1,0,0,1,-4.71159,-3.68075)">
            <path d="M462.349,474.86C500.333,474.86 531.17,505.698 531.17,543.681C531.17,581.664 500.333,612.501 462.349,612.501C424.366,612.501 393.529,581.664 393.529,543.681C393.529,505.698 424.366,474.86 462.349,474.86ZM462.349,478.86C426.574,478.86 397.529,507.905 397.529,543.681C397.529,579.456 426.574,608.501 462.349,608.501C498.125,608.501 527.17,579.456 527.17,543.681C527.17,507.905 498.125,478.86 462.349,478.86Z"/>
        </g>
        <g transform="matrix(1,0,0,1,159.409,-3.68075)">
            <path d="M462.349,474.86C500.333,474.86 531.17,505.698 531.17,543.681C531.17,581.664 500.333,612.501 462.349,612.501C424.366,612.501 393.529,581.664 393.529,543.681C393.529,505.698 424.366,474.86 462.349,474.86ZM462.349,478.86C426.574,478.86 397.529,507.905 397.529,543.681C397.529,579.456 426.574,608.501 462.349,608.501C498.125,608.501 527.17,579.456 527.17,543.681C527.17,507.905 498.125,478.86 462.349,478.86Z"/>
        </g>
        <path d="M524.459,542C523.355,542 522.459,541.104 522.459,540C522.459,538.896 523.355,538 524.459,538L554.938,538C556.042,538 556.938,538.896 556.938,540C556.938,541.104 556.042,542 554.938,542L524.459,542Z"/>
    </g>
</svg>
