<?xml version="1.0" encoding="UTF-8" standalone="no"?>
<!DOCTYPE svg PUBLIC "-//W3C//DTD SVG 1.1//EN" "http://www.w3.org/Graphics/SVG/1.1/DTD/svg11.dtd">
<svg width="100%" height="100%" viewBox="0 0 1080 1080" version="1.1" xmlns="http://www.w3.org/2000/svg" xmlns:xlink="http://www.w3.org/1999/xlink" xml:space="preserve" xmlns:serif="http://www.serif.com/" style="fill-rule:evenodd;clip-rule:evenodd;stroke-linejoin:round;stroke-miterlimit:2;">
    <g>
        <g>
            <g>
                <g>
                    <path d="M537.684,664.506C537.754,663.405 538.704,662.567 539.806,662.636C540.908,662.706 541.746,663.656 541.676,664.758L540.829,678.21C540.759,679.312 539.808,680.15 538.707,680.08C537.605,680.011 536.767,679.06 536.836,677.958L537.684,664.506Z" style="fill:rgb(50,50,50);"/>
                    <path d="M553.401,665.37C552.994,664.344 553.497,663.18 554.523,662.773C555.549,662.366 556.712,662.869 557.119,663.895L562.278,676.9C562.685,677.926 562.183,679.09 561.157,679.497C560.131,679.904 558.967,679.401 558.56,678.375L553.401,665.37Z" style="fill:rgb(50,50,50);"/>
                    <path d="M522.881,663.895C523.288,662.869 524.451,662.366 525.477,662.773C526.503,663.18 527.006,664.344 526.599,665.37L521.44,678.375C521.033,679.401 519.869,679.904 518.843,679.497C517.817,679.09 517.315,677.926 517.722,676.9L522.881,663.895Z" style="fill:rgb(50,50,50);"/>
                </g>
            </g>
        </g>
    </g>
</svg>
