<?xml version="1.0" encoding="UTF-8" standalone="no"?>
<!DOCTYPE svg PUBLIC "-//W3C//DTD SVG 1.1//EN" "http://www.w3.org/Graphics/SVG/1.1/DTD/svg11.dtd">
<svg width="100%" height="100%" viewBox="0 0 1080 1080" version="1.1" xmlns="http://www.w3.org/2000/svg" xmlns:xlink="http://www.w3.org/1999/xlink" xml:space="preserve" xmlns:serif="http://www.serif.com/" style="fill-rule:evenodd;clip-rule:evenodd;stroke-linejoin:round;stroke-miterlimit:2;">
    <g>
        <g>
            <path d="M540,591.993C539.233,592.812 538.384,593.545 537.46,594.156C533.549,596.738 528.998,597.094 525.933,597.471C514.111,598.924 484.637,590.666 492.774,569.046C494.532,576.528 496.279,579.374 499.504,580.639C505.87,583.134 510.32,581.007 511.065,577.189C512.943,567.561 519.002,563.147 526.585,562.812C531.865,562.579 536.635,564.663 540,568.048C543.365,564.663 548.135,562.579 553.415,562.812C560.998,563.147 567.057,567.561 568.935,577.189C569.68,581.007 574.13,583.134 580.496,580.639C583.721,579.374 585.468,576.528 587.226,569.046C595.363,590.666 565.889,598.924 554.067,597.471C551.002,597.094 546.451,596.738 542.54,594.156C541.616,593.545 540.767,592.812 540,591.993Z" style="fill:rgb(50,50,50);"/>
        </g>
    </g>
</svg>
