<?xml version="1.0" encoding="UTF-8" standalone="no"?>
<!DOCTYPE svg PUBLIC "-//W3C//DTD SVG 1.1//EN" "http://www.w3.org/Graphics/SVG/1.1/DTD/svg11.dtd">
<svg width="100%" height="100%" viewBox="0 0 1080 1080" version="1.1" xmlns="http://www.w3.org/2000/svg" xmlns:xlink="http://www.w3.org/1999/xlink" xml:space="preserve" xmlns:serif="http://www.serif.com/" style="fill-rule:evenodd;clip-rule:evenodd;stroke-linejoin:round;stroke-miterlimit:2;">
    <g>
        <g>
            <g>
                <g>
                    <g transform="matrix(1,0,0,1,3.69066,0)">
                        <path d="M536.309,762.813C588.323,762.202 637.077,731.183 692.641,683.438C702.806,674.703 729.458,640.596 745.982,623.498C757.197,611.893 762.602,595.863 777.714,595.863C794.224,595.863 807.627,608.199 807.627,623.394C807.627,633.079 802.181,641.603 793.955,646.511C793.724,647.428 793.484,648.353 793.236,649.284C796.527,653.706 798.453,659.055 798.453,664.814C798.453,675.144 792.258,684.152 783.104,688.862C785.095,692.547 786.214,696.7 786.214,701.092C786.214,709.062 782.526,716.246 776.635,721.276C777.338,723.615 777.714,726.078 777.714,728.622C777.714,741.335 768.331,752.046 755.596,755.206C756.059,758.343 756.301,761.583 756.301,764.896C756.301,792.826 739.088,815.501 717.887,815.501C717.229,815.501 716.576,815.479 715.926,815.436C716.417,818.352 716.673,821.354 716.673,824.42C716.673,852.349 695.402,875.024 669.201,875.024C666.369,875.024 663.594,874.759 660.898,874.251C653.859,885.942 642.983,893.445 630.787,893.445C624.96,893.445 619.434,891.732 614.484,888.667C607.505,901.405 596.14,909.702 583.315,909.702C573.627,909.702 564.772,904.967 558.012,897.16C553.024,903.064 546.622,907.248 539.475,908.909L539.475,909.696C538.408,909.676 537.352,909.6 536.309,909.471C535.266,909.6 534.211,909.676 533.144,909.696L533.144,908.909C525.997,907.248 519.595,903.064 514.607,897.16C507.846,904.967 498.991,909.702 489.303,909.702C476.479,909.702 465.114,901.405 458.135,888.667C453.185,891.732 447.659,893.445 441.831,893.445C429.636,893.445 418.76,885.942 411.721,874.251C409.025,874.759 406.25,875.024 403.418,875.024C377.217,875.024 355.946,852.349 355.946,824.42C355.946,821.354 356.202,818.352 356.693,815.436C356.043,815.479 355.389,815.501 354.731,815.501C333.53,815.501 316.318,792.826 316.318,764.896C316.318,761.583 316.56,758.343 317.023,755.206C304.288,752.046 294.905,741.335 294.905,728.622C294.905,726.078 295.28,723.615 295.983,721.276C290.093,716.246 286.404,709.062 286.404,701.092C286.404,696.7 287.524,692.547 289.515,688.862C280.361,684.152 274.166,675.144 274.166,664.814C274.166,659.055 276.092,653.706 279.382,649.284C279.134,648.353 278.895,647.428 278.664,646.511C270.438,641.603 264.991,633.079 264.991,623.394C264.991,608.199 278.395,595.863 294.905,595.863C310.017,595.863 315.422,611.893 326.637,623.498C343.16,640.596 369.813,674.703 379.978,683.438C435.541,731.183 484.296,762.202 536.309,762.813Z" style="fill:rgb(50,50,50);"/>
                    </g>
                    <path d="M476.497,600.649C476.497,600.649 510.644,554.706 540,572.204C540,572.204 577.84,556.581 606.651,607.157C608.637,610.642 613.303,617.873 606.828,622.315C606.828,622.315 594.882,629.819 580.592,607.028C580.592,607.028 541.168,555.584 497.125,608.775C497.125,608.775 486.16,620.232 481.548,618.831C474.448,616.675 471.173,613.104 476.497,600.649Z" style="fill:rgb(50,50,50);"/>
                </g>
            </g>
        </g>
    </g>
</svg>
