<?xml version="1.0" encoding="UTF-8" standalone="no"?>
<!DOCTYPE svg PUBLIC "-//W3C//DTD SVG 1.1//EN" "http://www.w3.org/Graphics/SVG/1.1/DTD/svg11.dtd">
<svg width="100%" height="100%" viewBox="0 0 1080 1080" version="1.1" xmlns="http://www.w3.org/2000/svg" xmlns:xlink="http://www.w3.org/1999/xlink" xml:space="preserve" xmlns:serif="http://www.serif.com/" style="fill-rule:evenodd;clip-rule:evenodd;stroke-linejoin:round;stroke-miterlimit:2;">
    <g>
        <g>
            <g>
                <g>
                    <path d="M777.813,1080L302.187,1080C302.187,969.191 390.938,868.482 506.212,853.287L540,916.572L573.788,853.287C689.062,868.482 777.813,969.191 777.813,1080Z" style="fill:rgb(216,216,216);"/>
                    <g>
                        <g>
                            <rect x="532.739" y="909.258" width="14.522" height="223.807" style="fill:rgb(195,195,195);"/>
                            <path d="M536.765,914.595C536.765,914.595 419.604,894.925 460.909,841.089C490.504,802.517 531.402,895.273 536.765,914.595Z" style="fill:rgb(169,169,169);"/>
                            <path d="M545.082,915.614C545.082,915.614 684.117,891.381 613.124,846.007C568.218,817.306 549.206,896.885 545.082,915.614Z" style="fill:rgb(169,169,169);"/>
                            <path d="M536.968,909.359C536.968,909.359 394.473,865.723 463.039,827.481C506.827,803.058 531.605,890.037 536.968,909.359Z" style="fill:rgb(216,216,216);"/>
                            <path d="M544.505,907.818C544.505,907.818 687.41,880.248 618.035,832.781C574.151,802.756 549.279,889.222 544.505,907.818Z" style="fill:rgb(216,216,216);"/>
                            <path d="M514.753,980.838C514.753,979.31 513.513,978.069 511.984,978.069C510.456,978.069 509.215,979.31 509.215,980.838L509.215,992.358C509.215,993.886 510.456,995.127 511.984,995.127C513.513,995.127 514.753,993.886 514.753,992.358L514.753,980.838Z" style="fill:rgb(127,127,127);"/>
                            <path d="M574.894,980.838C574.894,979.31 573.653,978.069 572.125,978.069C570.596,978.069 569.356,979.31 569.356,980.838L569.356,992.358C569.356,993.886 570.596,995.127 572.125,995.127C573.653,995.127 574.894,993.886 574.894,992.358L574.894,980.838Z" style="fill:rgb(127,127,127);"/>
                            <path d="M517.874,890.296C517.874,888.671 516.555,887.352 514.929,887.352L509.04,887.352C507.414,887.352 506.095,888.671 506.095,890.296L506.095,983.448C506.095,985.073 507.414,986.392 509.04,986.392L514.929,986.392C516.555,986.392 517.874,985.073 517.874,983.448L517.874,890.296Z" style="fill:rgb(195,195,195);"/>
                            <path d="M578.014,890.296C578.014,888.671 576.695,887.352 575.07,887.352L569.18,887.352C567.555,887.352 566.235,888.671 566.235,890.296L566.235,983.448C566.235,985.073 567.555,986.392 569.18,986.392L575.07,986.392C576.695,986.392 578.014,985.073 578.014,983.448L578.014,890.296Z" style="fill:rgb(195,195,195);"/>
                            <path d="M544.98,911.538L544.98,937.622C544.98,938.841 543.91,939.831 542.591,939.831L537.815,939.831C536.497,939.831 535.427,938.841 535.427,937.622L535.427,911.538C535.427,910.318 536.497,909.329 537.815,909.329L542.591,909.329C543.91,909.329 544.98,910.318 544.98,911.538ZM540.203,931.807C538.555,931.807 537.217,933.045 537.217,934.57C537.217,936.094 538.555,937.332 540.203,937.332C541.852,937.332 543.19,936.094 543.19,934.57C543.19,933.045 541.852,931.807 540.203,931.807Z" style="fill:rgb(127,127,127);"/>
                        </g>
                    </g>
                </g>
            </g>
        </g>
    </g>
</svg>
