<?xml version="1.0" encoding="UTF-8" standalone="no"?>
<!DOCTYPE svg PUBLIC "-//W3C//DTD SVG 1.1//EN" "http://www.w3.org/Graphics/SVG/1.1/DTD/svg11.dtd">
<svg width="100%" height="100%" viewBox="0 0 1080 1080" version="1.1" xmlns="http://www.w3.org/2000/svg" xmlns:xlink="http://www.w3.org/1999/xlink" xml:space="preserve" xmlns:serif="http://www.serif.com/" style="fill-rule:evenodd;clip-rule:evenodd;stroke-linejoin:round;stroke-miterlimit:2;">
    <g id="Hair-front">
        <g>
            <path d="M245.004,490.629C235.088,460.685 238.26,465.935 230.303,442.453C230.303,442.453 187.184,408.174 178.179,368.414C168.897,327.428 175.827,303.337 215.054,271.659C215.054,271.659 215.508,101.675 361.42,132.752C361.42,132.752 379.599,81.226 423.659,70.181C453.026,62.819 488.932,71.98 514.942,91.377C514.942,91.377 536.35,61.128 570.182,54.729C592.153,50.574 625.029,57.682 647.116,83.896C647.116,83.896 746.964,44.667 784.618,137.203C787.967,145.433 824.716,130.708 849.955,158.107C869.386,179.201 884.55,226.287 864.14,262.472C864.14,262.472 928.041,303.301 904.733,391.986C900.728,407.227 875.621,434.159 855.002,440.49C844.274,451.784 841.26,483.854 840.118,487.504L788.056,489.101C777.727,413.219 744.649,374.682 710.083,353.712C686.16,339.198 613.204,325.675 540,325.675C479.132,325.675 401.615,343.8 376.105,353.712C288.62,387.703 296.95,487.777 296.95,487.777L245.004,490.629Z" style="fill:rgb(50,50,50);"/>
        </g>
    </g>
</svg>
