<svg width="40" height="40" viewBox="0 0 40 40" fill="none" xmlns="http://www.w3.org/2000/svg">
<g clip-path="url(#clip0_146_1351)">
<path d="M16.228 23.01H14V21H16.261C18.139 21 18.264 23.01 16.228 23.01ZM22.986 20.333H26.004C25.887 18.618 23.274 18.356 22.986 20.333ZM16.182 17H14V19H16.389C18.062 19 18.326 17 16.182 17ZM32 13V27C32 29.761 29.762 32 27 32H13C10.238 32 8 29.761 8 27V13C8 10.239 10.238 8 13 8H27C29.762 8 32 10.239 32 13ZM22 16H27V15H22V16ZM18.448 19.618C20.355 18.644 20.285 15.068 16.635 15.014H12V24.992H16.311C20.833 24.992 20.756 20.458 18.448 19.618ZM27.935 20.22C27.661 18.457 26.407 17.27 24.352 17.27C22.258 17.27 21 18.61 21 21.217C21 23.848 22.367 25 24.416 25C26.465 25 27.522 23.865 27.816 23H25.705C24.969 23.855 22.812 23.521 22.938 21.647H27.998C28.008 21.013 27.986 20.558 27.935 20.22Z" fill="black"/>
</g>
<defs>
<clipPath id="clip0_146_1351">
<rect width="24" height="24" fill="white" transform="translate(8 8)"/>
</clipPath>
</defs>
</svg>
