<svg width="40" height="40" viewBox="0 0 40 40" fill="none" xmlns="http://www.w3.org/2000/svg">
<path d="M29.3333 8C30.0406 8 30.7189 8.28095 31.219 8.78105C31.719 9.28115 32 9.95942 32 10.6667V29.3333C32 30.0406 31.719 30.7189 31.219 31.219C30.7189 31.719 30.0406 32 29.3333 32H10.6667C9.95942 32 9.28115 31.719 8.78105 31.219C8.28095 30.7189 8 30.0406 8 29.3333V10.6667C8 9.95942 8.28095 9.28115 8.78105 8.78105C9.28115 8.28095 9.95942 8 10.6667 8H29.3333ZM28.6667 28.6667V21.6C28.6667 20.4472 28.2087 19.3416 27.3936 18.5264C26.5784 17.7113 25.4728 17.2533 24.32 17.2533C23.1867 17.2533 21.8667 17.9467 21.2267 18.9867V17.5067H17.5067V28.6667H21.2267V22.0933C21.2267 21.0667 22.0533 20.2267 23.08 20.2267C23.5751 20.2267 24.0499 20.4233 24.3999 20.7734C24.75 21.1235 24.9467 21.5983 24.9467 22.0933V28.6667H28.6667ZM13.1733 15.4133C13.7674 15.4133 14.3372 15.1773 14.7573 14.7573C15.1773 14.3372 15.4133 13.7674 15.4133 13.1733C15.4133 11.9333 14.4133 10.92 13.1733 10.92C12.5757 10.92 12.0026 11.1574 11.58 11.58C11.1574 12.0026 10.92 12.5757 10.92 13.1733C10.92 14.4133 11.9333 15.4133 13.1733 15.4133ZM15.0267 28.6667V17.5067H11.3333V28.6667H15.0267Z" fill="#2867B2"/>
</svg>
