<svg width="158" height="158" viewBox="0 0 158 158" fill="none" xmlns="http://www.w3.org/2000/svg">
<g filter="url(#filter0_dd_85_1726)">
<g clip-path="url(#clip0_85_1726)">
<rect x="4" y="3" width="150" height="150" rx="75" fill="#8FD1ED"/>
<path fill-rule="evenodd" clip-rule="evenodd" d="M76.7384 12.2654C81.6279 11.312 127.11 5.41852 127.434 63.0297C127.75 118.907 128.667 147.197 109.449 138.469C109.449 138.469 102.33 144.171 98.1532 140.401C98.1532 140.401 87.5503 144.983 84.9961 139.819C84.9961 139.819 75.4117 148.419 72.3958 143.571L72.4035 142.88C69.5539 141.5 66.5842 138.269 66.5842 138.269C64.5416 143.342 55.8881 138.755 55.8881 138.755C52.5171 142.441 46.6883 136.774 46.6883 136.774C31.1183 145.246 31.06 117.357 31.553 62.3051C32.0141 10.7995 71.9205 11.6817 76.7384 12.2654Z" fill="#2D2D2D"/>
<path d="M82.7595 121.834H73.8684V140.079H82.7595V121.834Z" fill="#FFEDDE"/>
<path d="M82.7595 121.834H73.8684V130.604H82.7595V121.834Z" fill="#FF9592"/>
<path fill-rule="evenodd" clip-rule="evenodd" d="M78.314 24.2358C101.309 24.2358 119.977 47.2298 119.977 75.5518C119.977 103.873 101.309 126.868 78.314 126.868C55.3193 126.868 36.6504 103.873 36.6504 75.5518C36.6504 47.2298 55.3193 24.2358 78.314 24.2358Z" fill="#FFEDDE"/>
<path fill-rule="evenodd" clip-rule="evenodd" d="M38.5651 72.3291C44.96 72.3291 50.1519 78.3223 50.1519 85.7043C50.1519 93.0864 44.96 99.0797 38.5651 99.0797C32.1702 99.0797 26.9784 93.0864 26.9784 85.7043C26.9784 78.3223 32.1702 72.3291 38.5651 72.3291Z" fill="#FFEDDE"/>
<path fill-rule="evenodd" clip-rule="evenodd" d="M119.435 72.3291C125.83 72.3291 131.021 78.3223 131.021 85.7043C131.021 93.0864 125.83 99.0797 119.435 99.0797C113.04 99.0797 107.849 93.0864 107.849 85.7043C107.849 78.3223 113.04 72.3291 119.435 72.3291Z" fill="#FFEDDE"/>
<path fill-rule="evenodd" clip-rule="evenodd" d="M54.0597 27.4371C54.0623 27.1842 54.2696 26.9809 54.5224 26.9834C54.7753 26.986 54.9785 27.1933 54.976 27.4461L54.5767 67.6193C54.5742 67.8722 54.3668 68.0755 54.1141 68.0729C53.8612 68.0704 53.6579 67.8631 53.6604 67.6103L54.0597 27.4371Z" fill="#2D2D2D"/>
<path fill-rule="evenodd" clip-rule="evenodd" d="M66.7693 19.1094C66.7718 18.8565 66.9792 18.6533 67.2319 18.6558C67.4848 18.6583 67.6881 18.8657 67.6856 19.1184L67.2036 67.6193C67.201 67.8722 66.9937 68.0755 66.7409 68.073C66.488 68.0704 66.2847 67.8631 66.2873 67.6103L66.7693 19.1094Z" fill="#2D2D2D"/>
<path fill-rule="evenodd" clip-rule="evenodd" d="M78.0639 19.1094C78.0665 18.8565 78.2738 18.6533 78.5266 18.6558C78.7795 18.6583 78.9828 18.8657 78.9802 19.1184L78.4981 67.6193C78.4956 67.8722 78.2882 68.0755 78.0355 68.073C77.7826 68.0704 77.5793 67.8631 77.5818 67.6103L78.0639 19.1094Z" fill="#2D2D2D"/>
<path fill-rule="evenodd" clip-rule="evenodd" d="M90.5808 19.1094C90.583 18.8565 90.7898 18.6533 91.0428 18.6558C91.2958 18.6583 91.4993 18.8657 91.4971 19.1184L91.0153 67.6193C91.012 67.8722 90.8052 68.0755 90.5522 68.073C90.2992 68.0704 90.0957 67.8631 90.0979 67.6103L90.5808 19.1094Z" fill="#2D2D2D"/>
<path fill-rule="evenodd" clip-rule="evenodd" d="M103.098 19.1094C103.1 18.8565 103.307 18.6533 103.56 18.6558C103.813 18.6583 104.016 18.8657 104.013 19.1184L103.531 67.6193C103.528 67.8722 103.321 68.0755 103.068 68.073C102.815 68.0704 102.611 67.8631 102.614 67.6103L103.098 19.1094Z" fill="#2D2D2D"/>
<path fill-rule="evenodd" clip-rule="evenodd" d="M115.465 34.0997C115.467 33.8468 115.674 33.6435 115.927 33.646C116.18 33.6485 116.384 33.8559 116.381 34.1087L116.048 67.6195C116.045 67.8724 115.838 68.0757 115.585 68.0732C115.332 68.0706 115.128 67.8633 115.131 67.6105L115.465 34.0997Z" fill="#2D2D2D"/>
<path fill-rule="evenodd" clip-rule="evenodd" d="M43.0509 34.0997C43.0534 33.8468 43.2608 33.6435 43.5135 33.646C43.7664 33.6485 43.9697 33.8559 43.9672 34.1087L43.6341 67.6195C43.6316 67.8724 43.4242 68.0757 43.1714 68.0732C42.9185 68.0706 42.7153 67.8633 42.7178 67.6105L43.0509 34.0997Z" fill="#2D2D2D"/>
<path fill-rule="evenodd" clip-rule="evenodd" d="M78.1688 138.132L72.4561 130.029C72.4561 130.029 58.1814 153.959 64.1723 161.916C64.1723 161.916 67.536 164.704 78.6486 162.437C78.6486 162.437 89.3214 165.527 91.8756 162.495C91.8756 162.495 96.7662 146.502 83.0591 129.834L78.1688 138.132Z" fill="#D8D8D8"/>
<path d="M78.8519 137.771H77.3463V162.854H78.8519V137.771Z" fill="#C3C3C3"/>
<path fill-rule="evenodd" clip-rule="evenodd" d="M69.3577 133.058C69.3577 133.058 49.3287 145.286 58.4372 151.975C58.4372 151.975 64.9353 156.586 67.071 147.925C67.071 147.925 75.3588 130.974 69.3577 133.058Z" fill="#D8D8D8"/>
<path fill-rule="evenodd" clip-rule="evenodd" d="M87.2577 132.049C87.2577 132.049 107.084 143.715 98.1785 150.964C98.1785 150.964 91.6808 155.577 89.5446 146.915C89.5446 146.915 81.2572 129.964 87.2577 132.049Z" fill="#D8D8D8"/>
<path fill-rule="evenodd" clip-rule="evenodd" d="M77.7637 138.369C77.7637 138.369 65.6169 136.165 69.8993 130.131C72.9675 125.808 77.2077 136.203 77.7637 138.369Z" fill="#A9A9A9"/>
<path fill-rule="evenodd" clip-rule="evenodd" d="M78.626 138.484C78.626 138.484 93.0405 135.768 85.6804 130.682C81.0241 127.465 79.054 136.384 78.626 138.484Z" fill="#A9A9A9"/>
<path fill-rule="evenodd" clip-rule="evenodd" d="M88.4051 133.193C88.1675 132.379 87.3139 131.911 86.4999 132.149L83.5508 133.01C82.7368 133.248 82.2682 134.101 82.5058 134.915L87.6813 152.641C87.92 153.454 88.7736 153.922 89.5876 153.685L92.5367 152.823C93.3507 152.586 93.8182 151.732 93.5817 150.917L88.4051 133.193Z" fill="#2D2D2D"/>
<path fill-rule="evenodd" clip-rule="evenodd" d="M74.3698 134.893C74.6137 134.082 74.1525 133.224 73.3403 132.981L70.3974 132.096C69.5853 131.852 68.7278 132.313 68.484 133.126L63.134 150.935C62.89 151.747 63.3512 152.605 64.1634 152.849L67.1064 153.732C67.9184 153.976 68.7759 153.515 69.0199 152.704L74.3698 134.893Z" fill="#2D2D2D"/>
<path fill-rule="evenodd" clip-rule="evenodd" d="M77.7847 137.782C77.7847 137.782 63.0114 132.891 70.12 128.606C74.6598 125.869 77.2288 135.617 77.7847 137.782Z" fill="#D8D8D8"/>
<path fill-rule="evenodd" clip-rule="evenodd" d="M78.5662 137.609C78.5662 137.609 93.3825 134.519 86.1896 129.2C81.64 125.835 79.0616 135.526 78.5662 137.609Z" fill="#D8D8D8"/>
<path fill-rule="evenodd" clip-rule="evenodd" d="M75.4817 145.77C75.4817 145.612 75.353 145.483 75.1946 145.483C75.0361 145.483 74.9075 145.612 74.9075 145.77V147.108C74.9075 147.266 75.0361 147.395 75.1946 147.395C75.353 147.395 75.4817 147.266 75.4817 147.108V145.77Z" fill="#7F7F7F"/>
<path fill-rule="evenodd" clip-rule="evenodd" d="M81.717 145.77C81.717 145.612 81.5883 145.483 81.4299 145.483C81.2715 145.483 81.1428 145.612 81.1428 145.77V147.108C81.1428 147.266 81.2715 147.395 81.4299 147.395C81.5883 147.395 81.717 147.266 81.717 147.108V145.77Z" fill="#7F7F7F"/>
<path fill-rule="evenodd" clip-rule="evenodd" d="M75.8052 135.621C75.8052 135.452 75.6684 135.315 75.4998 135.315H74.8892C74.7207 135.315 74.584 135.452 74.584 135.621V146.11C74.584 146.278 74.7207 146.416 74.8892 146.416H75.4998C75.6684 146.416 75.8052 146.278 75.8052 146.11V135.621Z" fill="#C3C3C3"/>
<path fill-rule="evenodd" clip-rule="evenodd" d="M82.0405 135.621C82.0405 135.452 81.903 135.315 81.7347 135.315H81.1242C80.9559 135.315 80.8195 135.452 80.8195 135.621V146.11C80.8195 146.278 80.9559 146.416 81.1242 146.416H81.7347C81.903 146.416 82.0405 146.278 82.0405 146.11V135.621Z" fill="#C3C3C3"/>
<path fill-rule="evenodd" clip-rule="evenodd" d="M68.1216 143.776C68.2569 141.903 66.8455 140.271 64.9718 140.136C63.098 140.001 61.4671 141.413 61.3319 143.286L61.0607 147.042C60.9255 148.915 62.3369 150.546 64.2106 150.682C66.0843 150.817 67.7153 149.406 67.8506 147.532L68.1216 143.776Z" fill="#C3C3C3"/>
<path fill-rule="evenodd" clip-rule="evenodd" d="M90.2508 143.482C90.1155 141.609 91.5268 139.977 93.4001 139.842C95.2745 139.707 96.9058 141.118 97.0411 142.992L97.3117 146.748C97.447 148.621 96.0357 150.252 94.1613 150.388C92.288 150.523 90.6567 149.112 90.5214 147.237L90.2508 143.482Z" fill="#C3C3C3"/>
<path fill-rule="evenodd" clip-rule="evenodd" d="M69.6373 138.382C72.2985 139.119 73.6903 142.493 72.7434 145.91C71.7965 149.326 68.8672 151.502 66.206 150.765C63.5449 150.028 62.1531 146.654 63.0999 143.238C64.0468 139.82 66.9761 137.645 69.6373 138.382Z" fill="#FFEDDE"/>
<path fill-rule="evenodd" clip-rule="evenodd" d="M78.6153 138.026V140.95C78.6153 141.086 78.5043 141.197 78.3677 141.197H77.8726C77.736 141.197 77.625 141.086 77.625 140.95V138.026C77.625 137.889 77.736 137.778 77.8726 137.778H78.3677C78.5043 137.778 78.6153 137.889 78.6153 138.026ZM78.1202 140.297C77.9493 140.297 77.8106 140.436 77.8106 140.608C77.8106 140.778 77.9493 140.917 78.1202 140.917C78.2911 140.917 78.4298 140.778 78.4298 140.608C78.4298 140.436 78.2911 140.297 78.1202 140.297Z" fill="#7F7F7F"/>
<path fill-rule="evenodd" clip-rule="evenodd" d="M88.5931 138.47C91.2243 137.631 94.2339 139.694 95.3108 143.073C96.3877 146.451 95.1249 149.874 92.4937 150.712C89.8625 151.55 86.8529 149.489 85.776 146.11C84.7002 142.732 85.9619 139.309 88.5931 138.47Z" fill="#FFEDDE"/>
<path fill-rule="evenodd" clip-rule="evenodd" d="M68.2469 71.4746C70.8407 71.4746 72.9465 74.4599 72.9465 78.1371C72.9465 81.8143 70.8407 84.7996 68.2469 84.7996C65.653 84.7996 63.5471 81.8143 63.5471 78.1371C63.5471 74.4599 65.653 71.4746 68.2469 71.4746Z" fill="white"/>
<path fill-rule="evenodd" clip-rule="evenodd" d="M68.2469 71.0166C69.4061 71.0166 70.4829 71.54 71.3519 72.4433C72.5885 73.7288 73.4047 75.7987 73.4047 78.1372C73.4047 80.4757 72.5885 82.5457 71.3519 83.8312C70.4829 84.7345 69.4061 85.2579 68.2469 85.2579C67.0876 85.2579 66.0109 84.7345 65.1418 83.8312C63.9052 82.5457 63.089 80.4757 63.089 78.1372C63.089 75.7987 63.9052 73.7288 65.1418 72.4433C66.0109 71.54 67.0876 71.0166 68.2469 71.0166ZM68.2469 71.9329C67.331 71.9329 66.4888 72.3649 65.8021 73.0786C64.7053 74.2187 64.0053 76.0631 64.0053 78.1372C64.0053 80.2114 64.7053 82.0558 65.8021 83.1959C66.4888 83.9096 67.331 84.3416 68.2469 84.3416C69.1628 84.3416 70.0049 83.9096 70.6915 83.1959C71.7883 82.0558 72.4884 80.2114 72.4884 78.1372C72.4884 76.0631 71.7883 74.2187 70.6915 73.0786C70.0049 72.3649 69.1628 71.9329 68.2469 71.9329Z" fill="#2D2D2D"/>
<path fill-rule="evenodd" clip-rule="evenodd" d="M68.2469 74.834C69.3755 74.834 70.2917 76.3141 70.2917 78.1373C70.2917 79.9604 69.3755 81.4406 68.2469 81.4406C67.1183 81.4406 66.202 79.9604 66.202 78.1373C66.202 76.3141 67.1183 74.834 68.2469 74.834Z" fill="#2D2D2D"/>
<path fill-rule="evenodd" clip-rule="evenodd" d="M65.2312 66.1477C64.9783 66.1477 64.7731 65.9425 64.7731 65.6896C64.7731 65.4367 64.9783 65.2314 65.2312 65.2314H71.2625C71.5154 65.2314 71.7207 65.4367 71.7207 65.6896C71.7207 65.9425 71.5154 66.1477 71.2625 66.1477H65.2312Z" fill="#2D2D2D"/>
<path fill-rule="evenodd" clip-rule="evenodd" d="M89.9571 71.4746C92.5509 71.4746 94.6563 74.4599 94.6563 78.1371C94.6563 81.8143 92.5509 84.7996 89.9571 84.7996C87.3633 84.7996 85.2568 81.8143 85.2568 78.1371C85.2568 74.4599 87.3633 71.4746 89.9571 71.4746Z" fill="white"/>
<path fill-rule="evenodd" clip-rule="evenodd" d="M89.9571 71.0166C91.1165 71.0166 92.1934 71.54 93.0624 72.4433C94.2988 73.7288 95.115 75.7987 95.115 78.1372C95.115 80.4757 94.2988 82.5457 93.0624 83.8312C92.1934 84.7345 91.1165 85.2579 89.9571 85.2579C88.7977 85.2579 87.7208 84.7345 86.8518 83.8312C85.6154 82.5457 84.7981 80.4757 84.7981 78.1372C84.7981 75.7987 85.6154 73.7288 86.8518 72.4433C87.7208 71.54 88.7977 71.0166 89.9571 71.0166ZM89.9571 71.9329C89.0408 71.9329 88.1993 72.3649 87.5118 73.0786C86.4151 74.2187 85.7155 76.0632 85.7155 78.1372C85.7155 80.2113 86.4151 82.0558 87.5118 83.1959C88.1993 83.9096 89.0408 84.3416 89.9571 84.3416C90.8734 84.3416 91.7149 83.9096 92.4013 83.1959C93.498 82.0559 94.1976 80.2114 94.1976 78.1372C94.1976 76.0631 93.498 74.2186 92.4013 73.0786C91.7149 72.3649 90.8734 71.9329 89.9571 71.9329Z" fill="#2D2D2D"/>
<path fill-rule="evenodd" clip-rule="evenodd" d="M89.9571 74.834C91.0857 74.834 92.002 76.3141 92.002 78.1373C92.002 79.9604 91.0857 81.4406 89.9571 81.4406C88.8285 81.4406 87.9122 79.9604 87.9122 78.1373C87.9122 76.3141 88.8285 74.834 89.9571 74.834Z" fill="#2D2D2D"/>
<path fill-rule="evenodd" clip-rule="evenodd" d="M86.9409 66.1477C86.6879 66.1477 86.4833 65.9425 86.4833 65.6896C86.4833 65.4367 86.6879 65.2314 86.9409 65.2314H92.9722C93.2252 65.2314 93.4298 65.4367 93.4298 65.6896C93.4298 65.9425 93.2252 66.1477 92.9722 66.1477H86.9409Z" fill="#2D2D2D"/>
<path fill-rule="evenodd" clip-rule="evenodd" d="M79.1023 92.2286L75.5048 85.5728H82.6993L79.1023 92.2286Z" fill="#FF9797"/>
<path fill-rule="evenodd" clip-rule="evenodd" d="M86.2281 144.619C86.084 144.827 85.7991 144.879 85.5901 144.736C85.3822 144.592 85.3305 144.307 85.4735 144.098C85.4735 144.098 86.5911 142.495 88.4006 142.616C88.6525 142.634 88.8439 142.853 88.8274 143.105C88.8098 143.357 88.5909 143.548 88.339 143.532C87.0289 143.444 86.2281 144.619 86.2281 144.619Z" fill="#FF9592"/>
<path fill-rule="evenodd" clip-rule="evenodd" d="M87.0442 147.336C86.9232 147.558 86.6449 147.639 86.4227 147.517C86.2005 147.396 86.1191 147.118 86.2412 146.896C86.2412 146.896 86.4887 146.44 86.9298 146.097C87.2554 145.844 87.6789 145.656 88.175 145.698C88.4269 145.719 88.6139 145.941 88.593 146.193C88.5721 146.445 88.3499 146.632 88.098 146.611C87.8549 146.59 87.6514 146.697 87.4919 146.821C87.207 147.043 87.0442 147.336 87.0442 147.336Z" fill="#FF9592"/>
<path fill-rule="evenodd" clip-rule="evenodd" d="M72.961 143.789C73.1046 143.997 73.0525 144.283 72.8444 144.427C72.6364 144.57 72.3508 144.518 72.207 144.31C72.207 144.31 71.406 143.135 70.0957 143.223C69.8435 143.24 69.6249 143.049 69.608 142.797C69.5911 142.545 69.7822 142.326 70.0345 142.308C71.844 142.187 72.961 143.789 72.961 143.789Z" fill="#FF9592"/>
<path fill-rule="evenodd" clip-rule="evenodd" d="M72.1938 146.588C72.3151 146.81 72.2335 147.088 72.0117 147.209C71.7898 147.331 71.5112 147.25 71.3899 147.028C71.3899 147.028 71.228 146.735 70.9425 146.513C70.783 146.388 70.5803 146.282 70.3367 146.303C70.0848 146.324 69.863 146.137 69.8417 145.885C69.8204 145.633 70.0077 145.411 70.2597 145.39C70.7563 145.348 71.1795 145.536 71.5047 145.789C71.9463 146.132 72.1938 146.588 72.1938 146.588Z" fill="#FF9592"/>
<path fill-rule="evenodd" clip-rule="evenodd" d="M36.4012 79.6456C36.6057 79.4969 36.8925 79.5423 37.0411 79.7469C37.1898 79.9514 37.1444 80.2382 36.9398 80.3868C36.9398 80.3868 35.9469 81.111 35.1598 82.302C34.3974 83.4555 33.8226 85.0602 34.6229 86.8752C34.712 87.0542 36.0857 89.7277 38.6953 90.0073C38.9466 90.0342 39.1289 90.2602 39.102 90.5116C39.075 90.763 38.8491 90.9453 38.5976 90.9183C35.433 90.5793 33.7951 87.2684 33.7951 87.2684C33.7925 87.2632 33.7901 87.258 33.7878 87.2527C32.8298 85.0897 33.4862 83.1721 34.3954 81.7968C35.2809 80.4571 36.4012 79.6456 36.4012 79.6456Z" fill="#FF9592"/>
<path fill-rule="evenodd" clip-rule="evenodd" d="M33.8632 86.3417C33.6125 86.3748 33.3822 86.1981 33.3492 85.9474C33.3161 85.6967 33.4929 85.4664 33.7436 85.4334L37.5377 84.9332C37.7884 84.9001 38.0187 85.0768 38.0517 85.3275C38.0848 85.5782 37.908 85.8086 37.6573 85.8416L33.8632 86.3417Z" fill="#FF9592"/>
<path fill-rule="evenodd" clip-rule="evenodd" d="M121.373 80.3868C121.168 80.2382 121.123 79.9514 121.272 79.7468C121.42 79.5423 121.707 79.4969 121.912 79.6456C121.912 79.6456 123.032 80.4571 123.917 81.7968C124.827 83.1721 125.484 85.0897 124.526 87.2526C124.523 87.258 124.521 87.2631 124.518 87.2684C124.518 87.2684 122.88 90.5793 119.715 90.9183C119.465 90.9453 119.238 90.763 119.212 90.5117C119.184 90.2602 119.367 90.0342 119.619 90.0073C122.233 89.7271 123.607 87.0431 123.692 86.8716C124.491 85.0591 123.915 83.455 123.153 82.302C122.366 81.111 121.373 80.3868 121.373 80.3868Z" fill="#FF9592"/>
<path fill-rule="evenodd" clip-rule="evenodd" d="M124.57 85.4334C124.821 85.4664 124.998 85.6967 124.965 85.9474C124.932 86.1981 124.701 86.3748 124.451 86.3417L120.656 85.8416C120.405 85.8086 120.228 85.5782 120.261 85.3275C120.294 85.0768 120.525 84.9001 120.775 84.9332L124.57 85.4334Z" fill="#FF9592"/>
</g>
</g>
<defs>
<filter id="filter0_dd_85_1726" x="0" y="0" width="158" height="158" filterUnits="userSpaceOnUse" color-interpolation-filters="sRGB">
<feFlood flood-opacity="0" result="BackgroundImageFix"/>
<feColorMatrix in="SourceAlpha" type="matrix" values="0 0 0 0 0 0 0 0 0 0 0 0 0 0 0 0 0 0 127 0" result="hardAlpha"/>
<feMorphology radius="1" operator="dilate" in="SourceAlpha" result="effect1_dropShadow_85_1726"/>
<feOffset dy="1"/>
<feGaussianBlur stdDeviation="1.5"/>
<feColorMatrix type="matrix" values="0 0 0 0 0 0 0 0 0 0 0 0 0 0 0 0 0 0 0.15 0"/>
<feBlend mode="normal" in2="BackgroundImageFix" result="effect1_dropShadow_85_1726"/>
<feColorMatrix in="SourceAlpha" type="matrix" values="0 0 0 0 0 0 0 0 0 0 0 0 0 0 0 0 0 0 127 0" result="hardAlpha"/>
<feOffset dy="1"/>
<feGaussianBlur stdDeviation="1"/>
<feColorMatrix type="matrix" values="0 0 0 0 0 0 0 0 0 0 0 0 0 0 0 0 0 0 0.3 0"/>
<feBlend mode="normal" in2="effect1_dropShadow_85_1726" result="effect2_dropShadow_85_1726"/>
<feBlend mode="normal" in="SourceGraphic" in2="effect2_dropShadow_85_1726" result="shape"/>
</filter>
<clipPath id="clip0_85_1726">
<rect x="4" y="3" width="150" height="150" rx="75" fill="white"/>
</clipPath>
</defs>
</svg>
