<?xml version="1.0" encoding="UTF-8" standalone="no"?>
<!DOCTYPE svg PUBLIC "-//W3C//DTD SVG 1.1//EN" "http://www.w3.org/Graphics/SVG/1.1/DTD/svg11.dtd">
<svg width="100%" height="100%" viewBox="0 0 1080 1080" version="1.1" xmlns="http://www.w3.org/2000/svg" xmlns:xlink="http://www.w3.org/1999/xlink" xml:space="preserve" xmlns:serif="http://www.serif.com/" style="fill-rule:evenodd;clip-rule:evenodd;stroke-linejoin:round;stroke-miterlimit:2;">
    <g id="eyebrows">
        <g>
            <g>
                <g>
                    <path d="M405.676,480.993C404.743,481.582 403.507,481.303 402.917,480.37C402.328,479.436 402.608,478.2 403.541,477.611L426.632,463.037C427.086,462.75 427.635,462.658 428.157,462.781L483.669,475.819C484.744,476.071 485.411,477.149 485.159,478.223C484.907,479.298 483.829,479.965 482.755,479.713L428.058,466.866L405.676,480.993Z"/>
                    <path d="M664.472,477.611C665.406,478.2 665.685,479.436 665.096,480.37C664.507,481.303 663.271,481.582 662.337,480.993L639.955,466.866L585.259,479.713C584.184,479.965 583.107,479.298 582.854,478.223C582.602,477.149 583.27,476.071 584.344,475.819L639.856,462.781C640.378,462.658 640.928,462.75 641.381,463.037L664.472,477.611Z"/>
                </g>
            </g>
        </g>
    </g>
</svg>
