<?xml version="1.0" encoding="UTF-8" standalone="no"?>
<!DOCTYPE svg PUBLIC "-//W3C//DTD SVG 1.1//EN" "http://www.w3.org/Graphics/SVG/1.1/DTD/svg11.dtd">
<svg width="100%" height="100%" viewBox="0 0 1080 1080" version="1.1" xmlns="http://www.w3.org/2000/svg" xmlns:xlink="http://www.w3.org/1999/xlink" xml:space="preserve" xmlns:serif="http://www.serif.com/" style="fill-rule:evenodd;clip-rule:evenodd;stroke-linejoin:round;stroke-miterlimit:2;">
    <g id="eyebrows">
        <g>
            <g>
                <g>
                    <path d="M432.977,477.596C433.071,478.695 432.254,479.665 431.154,479.759C430.055,479.853 429.085,479.036 428.991,477.936C428.991,477.936 427.868,464.504 437.703,456.438C441.855,453.033 447.973,450.536 457.038,450.534C457.866,450.525 470.164,450.538 477.651,459.476C480.957,463.423 483.372,469.106 483.372,477.337C483.372,478.441 482.476,479.337 481.372,479.337C480.269,479.337 479.372,478.441 479.372,477.337C479.372,470.304 477.409,465.417 474.585,462.045C468.031,454.221 457.098,454.533 457.098,454.533C457.081,454.534 457.063,454.534 457.046,454.534C449.183,454.534 443.84,456.578 440.24,459.531C431.985,466.301 432.977,477.596 432.977,477.596Z"/>
                    <path d="M599.103,477.596C599.197,478.695 598.381,479.665 597.281,479.759C596.181,479.853 595.212,479.036 595.118,477.936C595.118,477.936 593.995,464.504 603.83,456.438C607.981,453.033 614.1,450.536 623.164,450.534C623.993,450.525 636.291,450.538 643.778,459.476C647.084,463.423 649.499,469.106 649.499,477.337C649.499,478.441 648.603,479.337 647.499,479.337C646.395,479.337 645.499,478.441 645.499,477.337C645.499,470.304 643.536,465.417 640.711,462.045C634.158,454.221 623.225,454.533 623.225,454.533C623.207,454.534 623.19,454.534 623.173,454.534C615.31,454.534 609.967,456.578 606.367,459.531C598.112,466.301 599.103,477.596 599.103,477.596Z"/>
                </g>
            </g>
        </g>
    </g>
</svg>
