<?xml version="1.0" encoding="UTF-8" standalone="no"?>
<!DOCTYPE svg PUBLIC "-//W3C//DTD SVG 1.1//EN" "http://www.w3.org/Graphics/SVG/1.1/DTD/svg11.dtd">
<svg width="100%" height="100%" viewBox="0 0 1080 1080" version="1.1" xmlns="http://www.w3.org/2000/svg" xmlns:xlink="http://www.w3.org/1999/xlink" xml:space="preserve" xmlns:serif="http://www.serif.com/" style="fill-rule:evenodd;clip-rule:evenodd;stroke-linejoin:round;stroke-miterlimit:2;">
    <g id="eyes">
        <g>
            <g>
                <g>
                    <g>
                        <g>
                            <path d="M455.897,495.395C474.848,495.395 490.233,515.382 490.233,540C490.233,564.618 474.848,584.605 455.897,584.605C436.946,584.605 421.56,564.618 421.56,540C421.56,515.382 436.946,495.395 455.897,495.395Z" style="fill:white;"/>
                            <path d="M455.897,493.395C475.792,493.395 492.233,514.155 492.233,540C492.233,565.845 475.792,586.605 455.897,586.605C436.001,586.605 419.56,565.845 419.56,540C419.56,514.155 436.001,493.395 455.897,493.395ZM455.897,497.395C437.89,497.395 423.56,516.608 423.56,540C423.56,563.392 437.89,582.605 455.897,582.605C473.904,582.605 488.233,563.392 488.233,540C488.233,516.608 473.904,497.395 455.897,497.395Z"/>
                            <path d="M441.18,540.941C441.171,540.629 470.623,540.629 470.614,540.941L441.18,540.941Z"/>
                            <path d="M470.614,540.941C470.276,552.365 463.811,561.488 455.897,561.488C447.983,561.488 441.518,552.365 441.18,540.941L470.614,540.941Z"/>
                            <path d="M421.56,542.941C420.457,542.941 419.56,542.045 419.56,540.941C419.56,539.837 420.457,538.941 421.56,538.941L490.233,538.941C491.337,538.941 492.233,539.837 492.233,540.941C492.233,542.045 491.337,542.941 490.233,542.941L421.56,542.941Z"/>
                        </g>
                    </g>
                    <g>
                        <g>
                            <path d="M623.142,495.395C642.093,495.395 657.478,515.382 657.478,540C657.478,564.618 642.093,584.605 623.142,584.605C604.191,584.605 588.805,564.618 588.805,540C588.805,515.382 604.191,495.395 623.142,495.395Z" style="fill:white;"/>
                            <path d="M623.142,493.395C643.037,493.395 659.478,514.155 659.478,540C659.478,565.845 643.037,586.605 623.142,586.605C603.247,586.605 586.805,565.845 586.805,540C586.805,514.155 603.247,493.395 623.142,493.395ZM623.142,497.395C605.135,497.395 590.805,516.608 590.805,540C590.805,563.392 605.135,582.605 623.142,582.605C641.149,582.605 655.478,563.392 655.478,540C655.478,516.608 641.149,497.395 623.142,497.395Z"/>
                            <path d="M608.425,540.941C608.416,540.629 637.868,540.629 637.859,540.941L608.425,540.941Z"/>
                            <path d="M637.859,540.941C637.521,552.365 631.056,561.488 623.142,561.488C615.228,561.488 608.763,552.365 608.425,540.941L637.859,540.941Z"/>
                            <path d="M588.805,542.941C587.702,542.941 586.805,542.045 586.805,540.941C586.805,539.837 587.702,538.941 588.805,538.941L657.478,538.941C658.582,538.941 659.478,539.837 659.478,540.941C659.478,542.045 658.582,542.941 657.478,542.941L588.805,542.941Z"/>
                        </g>
                    </g>
                </g>
            </g>
        </g>
    </g>
</svg>
