<?xml version="1.0" encoding="UTF-8" standalone="no"?>
<!DOCTYPE svg PUBLIC "-//W3C//DTD SVG 1.1//EN" "http://www.w3.org/Graphics/SVG/1.1/DTD/svg11.dtd">
<svg width="100%" height="100%" viewBox="0 0 1080 1080" version="1.1" xmlns="http://www.w3.org/2000/svg" xmlns:xlink="http://www.w3.org/1999/xlink" xml:space="preserve" xmlns:serif="http://www.serif.com/" style="fill-rule:evenodd;clip-rule:evenodd;stroke-linejoin:round;stroke-miterlimit:2;">
    <g id="eyes">
        <g>
            <g>
                <g>
                    <g>
                        <g>
                            <path d="M464.393,509.05C489.644,515.956 506.338,536.067 501.649,553.931C496.96,571.795 472.652,580.69 447.401,573.784C422.149,566.877 405.456,546.767 410.145,528.903C414.834,511.039 439.142,502.143 464.393,509.05Z" style="fill:white;"/>
                            <path d="M464.921,507.121C480.623,511.416 493.1,520.683 499.546,531.372C503.987,538.737 505.593,546.785 503.583,554.439C501.572,562.103 496.23,568.259 488.766,572.377C477.942,578.348 462.586,580.011 446.873,575.713C431.171,571.418 418.694,562.151 412.248,551.462C407.807,544.097 406.201,536.049 408.21,528.395C410.222,520.731 415.564,514.574 423.028,510.457C433.852,504.486 449.208,502.823 464.921,507.121ZM463.865,510.979C449.277,506.989 435.01,508.416 424.96,513.96C418.506,517.519 413.819,522.784 412.079,529.411C410.337,536.048 411.822,543.01 415.673,549.396C421.666,559.334 433.329,567.861 447.928,571.855C462.517,575.845 476.784,574.418 486.834,568.874C493.287,565.314 497.975,560.05 499.715,553.423C501.457,546.786 499.971,539.824 496.12,533.437C490.128,523.499 478.465,514.972 463.865,510.979Z"/>
                            <path d="M459.99,525.824C471.721,529.033 479.411,538.625 477.152,547.23C474.893,555.836 463.535,560.218 451.804,557.009C440.073,553.801 432.383,544.209 434.642,535.603C436.901,526.997 448.259,522.616 459.99,525.824Z"/>
                        </g>
                    </g>
                    <g>
                        <g>
                            <path d="M615.607,509.05C640.858,502.143 665.166,511.039 669.855,528.903C674.544,546.767 657.851,566.877 632.599,573.784C607.348,580.69 583.04,571.795 578.351,553.931C573.662,536.067 590.356,515.956 615.607,509.05Z" style="fill:white;"/>
                            <path d="M615.079,507.121C630.792,502.823 646.148,504.486 656.972,510.457C664.436,514.574 669.778,520.731 671.79,528.395C673.799,536.049 672.193,544.097 667.752,551.462C661.306,562.151 648.829,571.418 633.127,575.713C617.414,580.011 602.058,578.348 591.234,572.377C583.77,568.259 578.428,562.103 576.416,554.439C574.407,546.785 576.013,538.737 580.454,531.372C586.9,520.683 599.377,511.416 615.079,507.121ZM616.135,510.979C601.535,514.972 589.872,523.499 583.88,533.437C580.029,539.824 578.543,546.786 580.285,553.423C582.025,560.05 586.713,565.314 593.166,568.874C603.216,574.418 617.483,575.845 632.072,571.855C646.671,567.861 658.334,559.334 664.326,549.396C668.177,543.01 669.663,536.048 667.921,529.411C666.181,522.784 661.493,517.519 655.04,513.96C644.99,508.416 630.723,506.989 616.135,510.979Z"/>
                            <path d="M620.01,525.824C631.741,522.616 643.099,526.997 645.358,535.603C647.617,544.209 639.927,553.801 628.196,557.009C616.465,560.218 605.107,555.836 602.848,547.23C600.589,538.625 608.279,529.033 620.01,525.824Z"/>
                        </g>
                    </g>
                </g>
            </g>
        </g>
    </g>
</svg>
