<?xml version="1.0" encoding="UTF-8" standalone="no"?>
<!DOCTYPE svg PUBLIC "-//W3C//DTD SVG 1.1//EN" "http://www.w3.org/Graphics/SVG/1.1/DTD/svg11.dtd">
<svg width="100%" height="100%" viewBox="0 0 1080 1080" version="1.1" xmlns="http://www.w3.org/2000/svg" xmlns:xlink="http://www.w3.org/1999/xlink" xml:space="preserve" xmlns:serif="http://www.serif.com/" style="fill-rule:evenodd;clip-rule:evenodd;stroke-linejoin:round;stroke-miterlimit:2;">
    <g id="eyes">
        <g>
            <g>
                <g>
                    <g>
                        <g>
                            <path d="M455.897,503.875C482.039,503.875 503.263,518.438 503.263,536.376C503.263,554.313 482.039,568.876 455.897,568.876C429.755,568.876 408.531,554.313 408.531,536.376C408.531,518.438 429.755,503.875 455.897,503.875Z" style="fill:white;"/>
                            <path d="M455.897,501.875C472.151,501.875 486.551,507.365 495.486,515.726C501.664,521.508 505.263,528.664 505.263,536.376C505.263,544.088 501.664,551.243 495.486,557.025C486.551,565.386 472.151,570.876 455.897,570.876C439.643,570.876 425.243,565.386 416.308,557.025C410.13,551.243 406.531,544.088 406.531,536.376C406.531,528.664 410.13,521.508 416.308,515.726C425.243,507.365 439.643,501.875 455.897,501.875ZM455.897,505.875C440.781,505.875 427.351,510.871 419.041,518.647C413.723,523.623 410.531,529.738 410.531,536.376C410.531,543.014 413.723,549.128 419.041,554.104C427.351,561.88 440.781,566.876 455.897,566.876C471.013,566.876 484.443,561.88 492.752,554.104C498.07,549.128 501.263,543.014 501.263,536.376C501.263,529.738 498.07,523.623 492.752,518.647C484.443,510.871 471.013,505.875 455.897,505.875Z"/>
                            <path d="M455.897,520.719C468.042,520.719 477.902,527.734 477.902,536.376C477.902,545.017 468.042,552.032 455.897,552.032C443.752,552.032 433.892,545.017 433.892,536.376C433.892,527.734 443.752,520.719 455.897,520.719Z"/>
                        </g>
                    </g>
                    <g>
                        <g>
                            <path d="M624.103,503.875C650.245,503.875 671.469,518.438 671.469,536.376C671.469,554.313 650.245,568.876 624.103,568.876C597.961,568.876 576.737,554.313 576.737,536.376C576.737,518.438 597.961,503.875 624.103,503.875Z" style="fill:white;"/>
                            <path d="M624.103,501.875C640.357,501.875 654.757,507.365 663.692,515.726C669.87,521.508 673.469,528.664 673.469,536.376C673.469,544.088 669.87,551.243 663.692,557.025C654.757,565.386 640.357,570.876 624.103,570.876C607.849,570.876 593.449,565.386 584.514,557.025C578.336,551.243 574.737,544.088 574.737,536.376C574.737,528.664 578.336,521.508 584.514,515.726C593.449,507.365 607.849,501.875 624.103,501.875ZM624.103,505.875C608.987,505.875 595.557,510.871 587.247,518.647C581.93,523.623 578.737,529.738 578.737,536.376C578.737,543.014 581.93,549.128 587.247,554.104C595.557,561.88 608.987,566.876 624.103,566.876C639.219,566.876 652.649,561.88 660.959,554.104C666.277,549.128 669.469,543.014 669.469,536.376C669.469,529.738 666.277,523.623 660.959,518.647C652.649,510.871 639.219,505.875 624.103,505.875Z"/>
                            <path d="M624.103,520.719C636.248,520.719 646.108,527.734 646.108,536.376C646.108,545.017 636.248,552.032 624.103,552.032C611.958,552.032 602.098,545.017 602.098,536.376C602.098,527.734 611.958,520.719 624.103,520.719Z"/>
                        </g>
                    </g>
                </g>
            </g>
        </g>
    </g>
</svg>
