<?xml version="1.0" encoding="UTF-8" standalone="no"?>
<!DOCTYPE svg PUBLIC "-//W3C//DTD SVG 1.1//EN" "http://www.w3.org/Graphics/SVG/1.1/DTD/svg11.dtd">
<svg width="100%" height="100%" viewBox="0 0 1080 1080" version="1.1" xmlns="http://www.w3.org/2000/svg" xmlns:xlink="http://www.w3.org/1999/xlink" xml:space="preserve" xmlns:serif="http://www.serif.com/" style="fill-rule:evenodd;clip-rule:evenodd;stroke-linejoin:round;stroke-miterlimit:2;">
    <g id="eyes">
        <g>
            <g>
                <g>
                    <g>
                        <g>
                            <path d="M455.897,495.395C474.848,495.395 490.233,515.382 490.233,540C490.233,564.618 474.848,584.605 455.897,584.605C436.946,584.605 421.56,564.618 421.56,540C421.56,515.382 436.946,495.395 455.897,495.395Z" style="fill:white;"/>
                            <path d="M455.897,493.395C475.792,493.395 492.233,514.155 492.233,540C492.233,565.845 475.792,586.605 455.897,586.605C436.001,586.605 419.56,565.845 419.56,540C419.56,514.155 436.001,493.395 455.897,493.395ZM455.897,497.395C437.89,497.395 423.56,516.608 423.56,540C423.56,563.392 437.89,582.605 455.897,582.605C473.904,582.605 488.233,563.392 488.233,540C488.233,516.608 473.904,497.395 455.897,497.395Z"/>
                            <path d="M455.897,518.512C464.027,518.512 470.628,528.14 470.628,540C470.628,551.86 464.027,561.488 455.897,561.488C447.767,561.488 441.166,551.86 441.166,540C441.166,528.14 447.767,518.512 455.897,518.512Z"/>
                        </g>
                    </g>
                    <g>
                        <g>
                            <path d="M623.32,495.395C642.271,495.395 657.656,515.382 657.656,540C657.656,564.618 642.271,584.605 623.32,584.605C604.369,584.605 588.983,564.618 588.983,540C588.983,515.382 604.369,495.395 623.32,495.395Z" style="fill:white;"/>
                            <path d="M623.32,493.395C643.215,493.395 659.656,514.155 659.656,540C659.656,565.845 643.215,586.605 623.32,586.605C603.424,586.605 586.983,565.845 586.983,540C586.983,514.155 603.424,493.395 623.32,493.395ZM623.32,497.395C605.313,497.395 590.983,516.608 590.983,540C590.983,563.392 605.313,582.605 623.32,582.605C641.327,582.605 655.656,563.392 655.656,540C655.656,516.608 641.327,497.395 623.32,497.395Z"/>
                            <path d="M623.32,518.512C631.45,518.512 638.051,528.14 638.051,540C638.051,551.86 631.45,561.488 623.32,561.488C615.19,561.488 608.589,551.86 608.589,540C608.589,528.14 615.19,518.512 623.32,518.512Z"/>
                        </g>
                    </g>
                </g>
            </g>
        </g>
    </g>
</svg>
