<?xml version="1.0" encoding="UTF-8" standalone="no"?>
<!DOCTYPE svg PUBLIC "-//W3C//DTD SVG 1.1//EN" "http://www.w3.org/Graphics/SVG/1.1/DTD/svg11.dtd">
<svg width="100%" height="100%" viewBox="0 0 1080 1080" version="1.1" xmlns="http://www.w3.org/2000/svg" xmlns:xlink="http://www.w3.org/1999/xlink" xml:space="preserve" xmlns:serif="http://www.serif.com/" style="fill-rule:evenodd;clip-rule:evenodd;stroke-linejoin:round;stroke-miterlimit:2;">
    <g id="eyes">
        <g>
            <g>
                <g>
                    <g>
                        <g>
                            <path d="M455.897,495.395C474.848,495.395 490.233,515.382 490.233,540C490.233,564.618 474.848,584.605 455.897,584.605C436.946,584.605 421.56,564.618 421.56,540C421.56,515.382 436.946,495.395 455.897,495.395Z" style="fill:white;"/>
                            <path d="M455.897,493.395C475.792,493.395 492.233,514.155 492.233,540C492.233,565.845 475.792,586.605 455.897,586.605C436.001,586.605 419.56,565.845 419.56,540C419.56,514.155 436.001,493.395 455.897,493.395ZM455.897,497.395C437.89,497.395 423.56,516.608 423.56,540C423.56,563.392 437.89,582.605 455.897,582.605C473.904,582.605 488.233,563.392 488.233,540C488.233,516.608 473.904,497.395 455.897,497.395Z"/>
                            <path d="M455.897,518.512C464.027,518.512 470.628,528.14 470.628,540C470.628,551.86 464.027,561.488 455.897,561.488C447.767,561.488 441.166,551.86 441.166,540C441.166,528.14 447.767,518.512 455.897,518.512Z"/>
                            <path d="M425.43,562.05C426.408,561.539 427.617,561.917 428.129,562.895C428.641,563.873 428.262,565.083 427.284,565.594L416.375,571.302C415.397,571.814 414.187,571.435 413.676,570.457C413.164,569.479 413.542,568.27 414.52,567.758L425.43,562.05Z"/>
                            <path d="M429.823,571.103C430.323,570.119 431.527,569.725 432.512,570.224C433.496,570.723 433.89,571.928 433.391,572.913L429.628,580.332C429.128,581.316 427.924,581.71 426.939,581.211C425.955,580.711 425.561,579.507 426.06,578.522L429.823,571.103Z"/>
                        </g>
                    </g>
                    <g>
                        <g>
                            <path d="M623.32,495.395C604.369,495.395 588.983,515.382 588.983,540C588.983,564.618 604.369,584.605 623.32,584.605C642.271,584.605 657.656,564.618 657.656,540C657.656,515.382 642.271,495.395 623.32,495.395Z" style="fill:white;"/>
                            <path d="M623.32,493.395C643.215,493.395 659.656,514.155 659.656,540C659.656,565.845 643.215,586.605 623.32,586.605C603.424,586.605 586.983,565.845 586.983,540C586.983,514.155 603.424,493.395 623.32,493.395ZM623.32,497.395C605.313,497.395 590.983,516.608 590.983,540C590.983,563.392 605.313,582.605 623.32,582.605C641.327,582.605 655.656,563.392 655.656,540C655.656,516.608 641.327,497.395 623.32,497.395Z"/>
                            <path d="M623.32,518.512C615.19,518.512 608.589,528.14 608.589,540C608.589,551.86 615.19,561.488 623.32,561.488C631.45,561.488 638.051,551.86 638.051,540C638.051,528.14 631.45,518.512 623.32,518.512Z"/>
                            <path d="M651.933,565.594C650.955,565.083 650.576,563.873 651.088,562.895C651.599,561.917 652.809,561.539 653.787,562.05L664.696,567.758C665.674,568.27 666.053,569.479 665.541,570.457C665.029,571.435 663.82,571.814 662.842,571.302L651.933,565.594Z"/>
                            <path d="M645.826,572.913C645.326,571.928 645.72,570.723 646.705,570.224C647.689,569.725 648.894,570.119 649.393,571.103L653.156,578.522C653.656,579.507 653.262,580.711 652.277,581.211C651.293,581.71 650.088,581.316 649.589,580.332L645.826,572.913Z"/>
                        </g>
                    </g>
                </g>
            </g>
        </g>
    </g>
</svg>
