<?xml version="1.0" encoding="UTF-8" standalone="no"?>
<!DOCTYPE svg PUBLIC "-//W3C//DTD SVG 1.1//EN" "http://www.w3.org/Graphics/SVG/1.1/DTD/svg11.dtd">
<svg width="100%" height="100%" viewBox="0 0 1080 1080" version="1.1" xmlns="http://www.w3.org/2000/svg" xmlns:xlink="http://www.w3.org/1999/xlink" xml:space="preserve" xmlns:serif="http://www.serif.com/" style="fill-rule:evenodd;clip-rule:evenodd;stroke-linejoin:round;stroke-miterlimit:2;">
    <g id="eyes">
        <g>
            <g>
                <g>
                    <path d="M501.649,523.561C500.249,518.337 494.871,515.232 489.647,516.631L417.074,536.077C411.85,537.477 408.745,542.855 410.145,548.079C411.545,553.304 416.923,556.409 422.147,555.009L494.72,535.563C499.944,534.163 503.049,528.785 501.649,523.561Z"/>
                    <path d="M669.855,548.079C671.255,542.855 668.15,537.477 662.926,536.077L590.353,516.631C585.129,515.232 579.751,518.337 578.351,523.561C576.951,528.785 580.056,534.163 585.28,535.563L657.853,555.009C663.077,556.409 668.455,553.304 669.855,548.079Z"/>
                </g>
            </g>
        </g>
    </g>
</svg>
