<?xml version="1.0" encoding="UTF-8" standalone="no"?>
<!DOCTYPE svg PUBLIC "-//W3C//DTD SVG 1.1//EN" "http://www.w3.org/Graphics/SVG/1.1/DTD/svg11.dtd">
<svg width="100%" height="100%" viewBox="0 0 1080 1080" version="1.1" xmlns="http://www.w3.org/2000/svg" xmlns:xlink="http://www.w3.org/1999/xlink" xml:space="preserve" xmlns:serif="http://www.serif.com/" style="fill-rule:evenodd;clip-rule:evenodd;stroke-linejoin:round;stroke-miterlimit:2;">
    <g id="eyes">
        <g>
            <g>
                <g>
                    <g>
                        <g>
                            <path d="M455.897,507.458C474.848,507.458 490.233,522.039 490.233,540C490.233,557.961 474.848,572.542 455.897,572.542C436.946,572.542 421.56,557.961 421.56,540C421.56,522.039 436.946,507.458 455.897,507.458Z" style="fill:white;"/>
                            <path d="M455.897,505.458C475.98,505.458 492.233,520.966 492.233,540C492.233,559.034 475.98,574.542 455.897,574.542C435.813,574.542 419.56,559.034 419.56,540C419.56,520.966 435.813,505.458 455.897,505.458ZM455.897,509.458C438.079,509.458 423.56,523.113 423.56,540C423.56,556.887 438.079,570.542 455.897,570.542C473.715,570.542 488.233,556.887 488.233,540C488.233,523.113 473.715,509.458 455.897,509.458Z"/>
                            <path d="M455.897,524.323C464.027,524.323 470.628,531.348 470.628,540C470.628,548.652 464.027,555.677 455.897,555.677C447.767,555.677 441.166,548.652 441.166,540C441.166,531.348 447.767,524.323 455.897,524.323Z"/>
                        </g>
                    </g>
                    <g>
                        <g>
                            <path d="M623.32,507.458C642.271,507.458 657.656,522.039 657.656,540C657.656,557.961 642.271,572.542 623.32,572.542C604.369,572.542 588.983,557.961 588.983,540C588.983,522.039 604.369,507.458 623.32,507.458Z" style="fill:white;"/>
                            <path d="M623.32,505.458C643.403,505.458 659.656,520.966 659.656,540C659.656,559.034 643.403,574.542 623.32,574.542C603.236,574.542 586.983,559.034 586.983,540C586.983,520.966 603.236,505.458 623.32,505.458ZM623.32,509.458C605.501,509.458 590.983,523.113 590.983,540C590.983,556.887 605.501,570.542 623.32,570.542C641.138,570.542 655.656,556.887 655.656,540C655.656,523.113 641.138,509.458 623.32,509.458Z"/>
                            <path d="M623.32,524.323C631.45,524.323 638.051,531.348 638.051,540C638.051,548.652 631.45,555.677 623.32,555.677C615.19,555.677 608.589,548.652 608.589,540C608.589,531.348 615.19,524.323 623.32,524.323Z"/>
                        </g>
                    </g>
                </g>
            </g>
        </g>
    </g>
</svg>
