<?xml version="1.0" encoding="UTF-8" standalone="no"?>
<!DOCTYPE svg PUBLIC "-//W3C//DTD SVG 1.1//EN" "http://www.w3.org/Graphics/SVG/1.1/DTD/svg11.dtd">
<svg width="100%" height="100%" viewBox="0 0 1080 1080" version="1.1" xmlns="http://www.w3.org/2000/svg" xmlns:xlink="http://www.w3.org/1999/xlink" xml:space="preserve" xmlns:serif="http://www.serif.com/" style="fill-rule:evenodd;clip-rule:evenodd;stroke-linejoin:round;stroke-miterlimit:2;">
    <g id="eyes">
        <g>
            <g>
                <g>
                    <g>
                        <g>
                            <path d="M447.401,509.05C472.652,502.143 496.96,511.039 501.649,528.903C506.338,546.767 489.644,566.877 464.393,573.784C439.142,580.69 414.834,571.795 410.145,553.931C405.456,536.067 422.149,515.956 447.401,509.05Z" style="fill:white;"/>
                            <path d="M446.873,507.121C462.586,502.823 477.942,504.486 488.766,510.457C496.23,514.574 501.572,520.731 503.583,528.395C505.593,536.049 503.987,544.097 499.546,551.462C493.1,562.151 480.623,571.418 464.921,575.713C449.208,580.011 433.852,578.348 423.028,572.377C415.564,568.259 410.222,562.103 408.21,554.439C406.201,546.785 407.807,538.737 412.248,531.372C418.694,520.683 431.171,511.416 446.873,507.121ZM447.928,510.979C433.329,514.972 421.666,523.499 415.673,533.437C411.822,539.824 410.337,546.786 412.079,553.423C413.819,560.05 418.506,565.314 424.96,568.874C435.01,574.418 449.277,575.845 463.865,571.855C478.465,567.861 490.128,559.334 496.12,549.396C499.971,543.01 501.457,536.048 499.715,529.411C497.975,522.784 493.287,517.519 486.834,513.96C476.784,508.416 462.517,506.989 447.928,510.979Z"/>
                            <path d="M451.804,525.824C463.535,522.616 474.893,526.997 477.152,535.603C479.411,544.209 471.721,553.801 459.99,557.009C448.259,560.218 436.901,555.836 434.642,547.23C432.383,538.625 440.073,529.033 451.804,525.824Z"/>
                        </g>
                    </g>
                    <g>
                        <g>
                            <path d="M632.599,509.05C657.851,515.956 674.544,536.067 669.855,553.931C665.166,571.795 640.858,580.69 615.607,573.784C590.356,566.877 573.662,546.767 578.351,528.903C583.04,511.039 607.348,502.143 632.599,509.05Z" style="fill:white;"/>
                            <path d="M633.127,507.121C648.829,511.416 661.306,520.683 667.752,531.372C672.193,538.737 673.799,546.785 671.79,554.439C669.778,562.103 664.436,568.259 656.972,572.377C646.148,578.348 630.792,580.011 615.079,575.713C599.377,571.418 586.9,562.151 580.454,551.462C576.013,544.097 574.407,536.049 576.416,528.395C578.428,520.731 583.77,514.574 591.234,510.457C602.058,504.486 617.414,502.823 633.127,507.121ZM632.072,510.979C617.483,506.989 603.216,508.416 593.166,513.96C586.713,517.519 582.025,522.784 580.285,529.411C578.543,536.048 580.029,543.01 583.88,549.396C589.872,559.334 601.535,567.861 616.135,571.855C630.723,575.845 644.99,574.418 655.04,568.874C661.493,565.314 666.181,560.05 667.921,553.423C669.663,546.786 668.177,539.824 664.326,533.437C658.334,523.499 646.671,514.972 632.072,510.979Z"/>
                            <path d="M628.196,525.824C639.927,529.033 647.617,538.625 645.358,547.23C643.099,555.836 631.741,560.218 620.01,557.009C608.279,553.801 600.589,544.209 602.848,535.603C605.107,526.997 616.465,522.616 628.196,525.824Z"/>
                        </g>
                    </g>
                </g>
            </g>
        </g>
    </g>
</svg>
