<?xml version="1.0" encoding="UTF-8" standalone="no"?>
<!DOCTYPE svg PUBLIC "-//W3C//DTD SVG 1.1//EN" "http://www.w3.org/Graphics/SVG/1.1/DTD/svg11.dtd">
<svg width="100%" height="100%" viewBox="0 0 1080 1080" version="1.1" xmlns="http://www.w3.org/2000/svg" xmlns:xlink="http://www.w3.org/1999/xlink" xml:space="preserve" xmlns:serif="http://www.serif.com/" style="fill-rule:evenodd;clip-rule:evenodd;stroke-linejoin:round;stroke-miterlimit:2;">
    <g id="face">
        <g>
            <g>
                <g>
                    <rect x="504.131" y="769.269" width="71.738" height="142.085" style="fill:rgb(255,179,141);"/>
                    <path d="M540,1018.72L421.8,885.475L658.2,885.475L540,1018.72Z" style="fill:rgb(255,217,174);"/>
                    <path d="M263.46,421.418C303.746,421.418 336.453,467.222 336.453,523.641C336.453,580.059 303.746,625.864 263.46,625.864C223.174,625.864 190.467,580.059 190.467,523.641C190.467,467.222 223.174,421.418 263.46,421.418Z" style="fill:rgb(255,179,141);"/>
                    <path d="M816.54,421.418C856.826,421.418 889.533,467.222 889.533,523.641C889.533,580.059 856.826,625.864 816.54,625.864C776.254,625.864 743.547,580.059 743.547,523.641C743.547,467.222 776.254,421.418 816.54,421.418Z" style="fill:rgb(255,179,141);"/>
                    <path d="M540,175.578C688.84,175.578 809.68,324.507 809.68,507.945C809.68,691.383 688.84,840.312 540,840.312C391.159,840.312 270.32,691.383 270.32,507.945C270.32,324.507 391.159,175.578 540,175.578Z" style="fill:rgb(255,217,174);"/>
                </g>
            </g>
        </g>
    </g>
</svg>
