<?xml version="1.0" encoding="UTF-8" standalone="no"?>
<!DOCTYPE svg PUBLIC "-//W3C//DTD SVG 1.1//EN" "http://www.w3.org/Graphics/SVG/1.1/DTD/svg11.dtd">
<svg width="100%" height="100%" viewBox="0 0 1080 1080" version="1.1" xmlns="http://www.w3.org/2000/svg" xmlns:xlink="http://www.w3.org/1999/xlink" xml:space="preserve" xmlns:serif="http://www.serif.com/" style="fill-rule:evenodd;clip-rule:evenodd;stroke-linejoin:round;stroke-miterlimit:2;">
    <g id="face">
        <g>
            <g>
                <g>
                    <rect x="504.131" y="769.269" width="71.738" height="142.085" style="fill:rgb(255,179,141);"/>
                    <path d="M540,1018.72L421.8,885.475L658.2,885.475L540,1018.72Z" style="fill:rgb(255,217,174);"/>
                    <path d="M215.389,476.063C262.678,476.063 301.07,514.03 301.07,560.795C301.07,607.56 262.678,645.528 215.389,645.528C168.099,645.528 129.707,607.56 129.707,560.795C129.707,514.03 168.099,476.063 215.389,476.063Z" style="fill:rgb(255,179,141);"/>
                    <path d="M864.611,476.063C911.901,476.063 950.293,514.03 950.293,560.795C950.293,607.56 911.901,645.528 864.611,645.528C817.322,645.528 778.93,607.56 778.93,560.795C778.93,514.03 817.322,476.063 864.611,476.063Z" style="fill:rgb(255,179,141);"/>
                    <g transform="matrix(0.978712,0,0,0.891901,11.4953,57.5984)">
                        <path d="M540,202.928C723.055,202.928 871.672,363.129 871.672,532.832C871.672,702.535 723.055,840.312 540,840.312C356.945,840.312 208.328,702.535 208.328,532.832C208.328,363.129 356.945,202.928 540,202.928Z" style="fill:rgb(255,217,174);"/>
                    </g>
                </g>
            </g>
        </g>
    </g>
</svg>
