<?xml version="1.0" encoding="UTF-8" standalone="no"?>
<!DOCTYPE svg PUBLIC "-//W3C//DTD SVG 1.1//EN" "http://www.w3.org/Graphics/SVG/1.1/DTD/svg11.dtd">
<svg width="100%" height="100%" viewBox="0 0 1080 1080" version="1.1" xmlns="http://www.w3.org/2000/svg" xmlns:xlink="http://www.w3.org/1999/xlink" xml:space="preserve" xmlns:serif="http://www.serif.com/" style="fill-rule:evenodd;clip-rule:evenodd;stroke-linejoin:round;stroke-miterlimit:2;">
    <g id="face">
        <g>
            <g>
                <g>
                    <rect x="504.131" y="769.269" width="71.738" height="142.085" style="fill:rgb(255,179,141);"/>
                    <path d="M540,1018.72L421.8,885.475L658.2,885.475L540,1018.72Z" style="fill:rgb(255,217,174);"/>
                    <path d="M267.814,421.418C307.466,421.418 339.658,467.222 339.658,523.641C339.658,580.059 307.466,625.864 267.814,625.864C228.163,625.864 195.97,580.059 195.97,523.641C195.97,467.222 228.163,421.418 267.814,421.418Z" style="fill:rgb(255,179,141);"/>
                    <path d="M812.186,421.418C851.837,421.418 884.03,467.222 884.03,523.641C884.03,580.059 851.837,625.864 812.186,625.864C772.534,625.864 740.342,580.059 740.342,523.641C740.342,467.222 772.534,421.418 812.186,421.418Z" style="fill:rgb(255,179,141);"/>
                    <path d="M785.531,362.458C785.531,255.956 649.064,189.489 542.562,189.489L537.438,189.489C430.936,189.489 294.469,255.956 294.469,362.458L294.469,649.506C294.469,756.009 380.936,842.475 487.438,842.475L592.562,842.475C699.064,842.475 785.531,756.009 785.531,649.506L785.531,362.458Z" style="fill:rgb(255,217,174);"/>
                </g>
            </g>
        </g>
    </g>
</svg>
