<?xml version="1.0" encoding="UTF-8" standalone="no"?>
<!DOCTYPE svg PUBLIC "-//W3C//DTD SVG 1.1//EN" "http://www.w3.org/Graphics/SVG/1.1/DTD/svg11.dtd">
<svg width="100%" height="100%" viewBox="0 0 1080 1080" version="1.1" xmlns="http://www.w3.org/2000/svg" xmlns:xlink="http://www.w3.org/1999/xlink" xml:space="preserve" xmlns:serif="http://www.serif.com/" style="fill-rule:evenodd;clip-rule:evenodd;stroke-linejoin:round;stroke-miterlimit:2;">
    <g id="face">
        <g>
            <g>
                <g>
                    <rect x="504.131" y="769.269" width="71.738" height="142.085" style="fill:rgb(255,179,141);"/>
                    <path d="M540,1018.72L421.8,885.475L658.2,885.475L540,1018.72Z" style="fill:rgb(255,217,174);"/>
                    <path d="M247.692,463.68C290.275,463.68 324.847,509.485 324.847,565.903C324.847,622.322 290.275,668.126 247.692,668.126C205.109,668.126 170.536,622.322 170.536,565.903C170.536,509.485 205.109,463.68 247.692,463.68Z" style="fill:rgb(255,179,141);"/>
                    <path d="M832.308,463.68C874.891,463.68 909.463,509.485 909.463,565.903C909.463,622.322 874.891,668.126 832.308,668.126C789.725,668.126 755.153,622.322 755.153,565.903C755.153,509.485 789.725,463.68 832.308,463.68Z" style="fill:rgb(255,179,141);"/>
                    <path d="M795.395,427.62C795.395,316.839 705.455,226.899 594.673,226.899L485.326,226.899C374.545,226.899 284.605,316.839 284.605,427.62L284.605,641.754C284.605,752.535 374.545,842.475 485.326,842.475L594.673,842.475C705.455,842.475 795.395,752.535 795.395,641.754L795.395,427.62Z" style="fill:rgb(255,217,174);"/>
                </g>
            </g>
        </g>
    </g>
</svg>
