<?xml version="1.0" encoding="UTF-8" standalone="no"?>
<!DOCTYPE svg PUBLIC "-//W3C//DTD SVG 1.1//EN" "http://www.w3.org/Graphics/SVG/1.1/DTD/svg11.dtd">
<svg width="100%" height="100%" viewBox="0 0 1080 1080" version="1.1" xmlns="http://www.w3.org/2000/svg" xmlns:xlink="http://www.w3.org/1999/xlink" xml:space="preserve" xmlns:serif="http://www.serif.com/" style="fill-rule:evenodd;clip-rule:evenodd;stroke-linejoin:round;stroke-miterlimit:2;">
    <g id="face">
        <g>
            <g>
                <g>
                    <rect x="504.131" y="769.269" width="71.738" height="142.085" style="fill:rgb(255,179,141);"/>
                    <path d="M540,1018.72L421.8,885.475L658.2,885.475L540,1018.72Z" style="fill:rgb(255,217,174);"/>
                    <path d="M249.239,468.609C291.597,468.609 325.986,506.062 325.986,552.195C325.986,598.327 291.597,635.781 249.239,635.781C206.881,635.781 172.492,598.327 172.492,552.195C172.492,506.062 206.881,468.609 249.239,468.609Z" style="fill:rgb(255,179,141);"/>
                    <path d="M830.761,468.609C873.119,468.609 907.508,506.062 907.508,552.195C907.508,598.327 873.119,635.781 830.761,635.781C788.403,635.781 754.014,598.327 754.014,552.195C754.014,506.062 788.403,468.609 830.761,468.609Z" style="fill:rgb(255,179,141);"/>
                    <path d="M540,234.538C699.56,234.538 829.103,364.081 829.103,523.641C829.103,683.201 699.56,812.743 540,812.743C380.44,812.743 250.897,683.201 250.897,523.641C250.897,364.081 380.44,234.538 540,234.538Z" style="fill:rgb(255,217,174);"/>
                </g>
            </g>
        </g>
    </g>
</svg>
