<?xml version="1.0" encoding="UTF-8" standalone="no"?>
<!DOCTYPE svg PUBLIC "-//W3C//DTD SVG 1.1//EN" "http://www.w3.org/Graphics/SVG/1.1/DTD/svg11.dtd">
<svg width="100%" height="100%" viewBox="0 0 1080 1080" version="1.1" xmlns="http://www.w3.org/2000/svg" xmlns:xlink="http://www.w3.org/1999/xlink" xml:space="preserve" xmlns:serif="http://www.serif.com/" style="fill-rule:evenodd;clip-rule:evenodd;stroke-linejoin:round;stroke-miterlimit:2;">
    <g id="mouth">
        <g>
            <path d="M517.666,599.689C517.916,598.614 518.993,597.944 520.068,598.195C521.143,598.445 521.812,599.521 521.562,600.596C521.562,600.596 519.129,610.705 525.7,616.785C528.581,619.451 533.169,621.268 540.312,621.292C540.323,621.292 540.334,621.292 540.346,621.293C540.346,621.293 549.19,621.482 554.643,614.758C557.019,611.826 558.713,607.589 558.844,601.51C558.868,600.407 559.783,599.53 560.887,599.554C561.991,599.578 562.867,600.493 562.843,601.597C562.687,608.808 560.569,613.799 557.75,617.277C551.078,625.505 540.264,625.292 540.298,625.292C531.802,625.264 526.411,622.892 522.983,619.721C514.833,612.18 517.666,599.689 517.666,599.689Z"/>
        </g>
    </g>
</svg>
