<?xml version="1.0" encoding="UTF-8" standalone="no"?>
<!DOCTYPE svg PUBLIC "-//W3C//DTD SVG 1.1//EN" "http://www.w3.org/Graphics/SVG/1.1/DTD/svg11.dtd">
<svg width="100%" height="100%" viewBox="0 0 1080 1080" version="1.1" xmlns="http://www.w3.org/2000/svg" xmlns:xlink="http://www.w3.org/1999/xlink" xml:space="preserve" xmlns:serif="http://www.serif.com/" style="fill-rule:evenodd;clip-rule:evenodd;stroke-linejoin:round;stroke-miterlimit:2;">
    <g id="mouth">
        <g>
            <path d="M538.196,641.11C537.368,640.38 537.289,639.115 538.02,638.287C538.75,637.46 540.015,637.38 540.843,638.111C540.843,638.111 544.029,640.923 547.96,642.422C550.057,643.222 552.386,643.687 554.49,642.854C555.827,642.324 557.035,641.251 558.051,639.475C558.234,639.09 559.762,635.686 558.851,631.54C558.182,628.498 556.176,625.114 551.535,622.134C550.953,621.76 550.605,621.111 550.616,620.418C550.627,619.726 550.996,619.089 551.59,618.734C551.59,618.734 556.605,615.74 559.767,610.948C561.678,608.05 562.917,604.454 561.606,600.445C561.004,599.675 558.541,596.846 554.546,596.496C551.219,596.205 546.98,597.666 541.84,602.836C541.061,603.619 539.794,603.622 539.011,602.844C538.228,602.066 538.225,600.799 539.003,600.016C545.365,593.617 550.778,592.151 554.895,592.511C561.429,593.083 565.049,598.376 565.049,598.376C565.147,598.52 565.227,598.675 565.285,598.839C567.22,604.298 565.699,609.22 563.106,613.151C560.965,616.395 558.091,618.929 556.074,620.473C560.202,623.792 562.042,627.429 562.757,630.681C564.051,636.567 561.598,641.326 561.598,641.326C561.585,641.352 561.571,641.378 561.556,641.404C559.992,644.168 558.037,645.751 555.963,646.573C552.929,647.774 549.558,647.313 546.534,646.16C541.93,644.404 538.196,641.11 538.196,641.11Z"/>
        </g>
    </g>
</svg>
