<?xml version="1.0" encoding="UTF-8" standalone="no"?>
<!DOCTYPE svg PUBLIC "-//W3C//DTD SVG 1.1//EN" "http://www.w3.org/Graphics/SVG/1.1/DTD/svg11.dtd">
<svg width="100%" height="100%" viewBox="0 0 1080 1080" version="1.1" xmlns="http://www.w3.org/2000/svg" xmlns:xlink="http://www.w3.org/1999/xlink" xml:space="preserve" xmlns:serif="http://www.serif.com/" style="fill-rule:evenodd;clip-rule:evenodd;stroke-linejoin:round;stroke-miterlimit:2;">
    <g id="mouth">
        <g>
            <path d="M518.624,605.545C519.355,604.717 520.62,604.638 521.447,605.368C522.275,606.099 522.354,607.364 521.624,608.191C521.624,608.191 518.811,611.378 517.312,615.308C516.513,617.405 516.047,619.735 516.88,621.839C517.41,623.176 518.483,624.384 520.259,625.4C520.645,625.582 524.049,627.111 528.195,626.199C531.236,625.531 534.621,623.525 537.601,618.884C537.975,618.301 538.624,617.954 539.316,617.965C540.008,617.976 540.646,618.345 541.001,618.939C541.001,618.939 543.995,623.954 548.787,627.116C551.684,629.027 555.281,630.266 559.289,628.955C560.06,628.353 562.889,625.89 563.239,621.895C563.53,618.568 562.069,614.329 556.899,609.188C556.116,608.41 556.112,607.143 556.89,606.36C557.669,605.577 558.936,605.574 559.719,606.352C566.118,612.714 567.584,618.126 567.224,622.244C566.651,628.778 561.358,632.398 561.358,632.398C561.215,632.496 561.059,632.575 560.895,632.634C555.437,634.568 550.514,633.048 546.584,630.454C543.339,628.314 540.806,625.44 539.261,623.423C535.942,627.551 532.306,629.391 529.054,630.106C523.167,631.4 518.408,628.947 518.408,628.947C518.382,628.933 518.356,628.92 518.33,628.905C515.567,627.341 513.983,625.386 513.161,623.311C511.96,620.278 512.422,616.907 513.575,613.883C515.331,609.279 518.624,605.545 518.624,605.545Z"/>
        </g>
    </g>
</svg>
