<?xml version="1.0" encoding="UTF-8" standalone="no"?>
<!DOCTYPE svg PUBLIC "-//W3C//DTD SVG 1.1//EN" "http://www.w3.org/Graphics/SVG/1.1/DTD/svg11.dtd">
<svg width="100%" height="100%" viewBox="0 0 1080 1080" version="1.1" xmlns="http://www.w3.org/2000/svg" xmlns:xlink="http://www.w3.org/1999/xlink" xml:space="preserve" xmlns:serif="http://www.serif.com/" style="fill-rule:evenodd;clip-rule:evenodd;stroke-linejoin:round;stroke-miterlimit:2;">
    <g id="mouth">
        <g>
            <g>
                <g>
                    <path d="M555.464,605.352L540,631.503L524.536,605.352L555.464,605.352Z" style="fill:rgb(255,144,144);"/>
                    <path d="M557.186,606.37L541.721,632.521C541.362,633.13 540.707,633.503 540,633.503C539.293,633.503 538.638,633.13 538.278,632.521L522.814,606.37C522.449,605.752 522.443,604.985 522.799,604.362C523.154,603.738 523.818,603.352 524.536,603.352L555.464,603.352C556.182,603.352 556.846,603.738 557.201,604.362C557.557,604.985 557.551,605.752 557.186,606.37ZM551.958,607.352L528.042,607.352L540,627.574L551.958,607.352Z" style="fill:rgb(234,114,114);"/>
                    <path d="M524.536,605.352L517.503,593.459L562.497,593.459L555.464,605.352L524.536,605.352Z" style="fill:white;"/>
                    <path d="M522.814,606.37L515.781,594.477C515.415,593.859 515.409,593.092 515.765,592.468C516.121,591.844 516.784,591.459 517.503,591.459L562.497,591.459C563.216,591.459 563.879,591.844 564.235,592.468C564.59,593.092 564.584,593.859 564.219,594.477L557.186,606.37C556.826,606.979 556.171,607.352 555.464,607.352L524.536,607.352C523.829,607.352 523.174,606.979 522.814,606.37ZM525.677,603.352L554.323,603.352L558.991,595.459L521.009,595.459L525.677,603.352Z" style="fill:rgb(234,114,114);"/>
                </g>
            </g>
        </g>
    </g>
</svg>
